<?xml version="1.0" encoding="UTF-8" standalone="no"?>
<!-- Created with Inkscape (http://www.inkscape.org/) -->
<svg xmlns:inkscape="http://www.inkscape.org/namespaces/inkscape" xmlns:rdf="http://www.w3.org/1999/02/22-rdf-syntax-ns#" xmlns:ns1="http://sozi.baierouge.fr" xmlns:dc="http://purl.org/dc/elements/1.1/" xmlns="http://www.w3.org/2000/svg" xmlns:cc="http://web.resource.org/cc/" xmlns:xlink="http://www.w3.org/1999/xlink" xmlns:sodipodi="http://sodipodi.sourceforge.net/DTD/sodipodi-0.dtd" id="svg33726" version="1.0" viewBox="0 0 618.36 420.57" inkscape:version="0.91 r13725">
  <g id="layer1" transform="translate(-2.8571 -2.5764)">
    <rect id="rect34714" style="fill-rule:evenodd;fill:#f9f9f9" height="407.41" width="612.68" y="12.362" x="2.8571"/>
    <g id="g34704" transform="matrix(4.074 0 0 3.7551 1896.7 -4116.3)">
      <path id="path34712" style="fill:#59a8ad" d="m-464.57 1152.9v-55.5h75.5 75.5v55.5 55.5h-37.5c-36.83 0-37.5-0.1-37.5-2 0-1.4-0.67-2-1.99-2-1.1 0-2.56 0.9-3.24 2-1.21 1.9-2.34 2-36.01 2h-34.76v-55.5zm67.59-0.1c10.18-31.8 10.22-31.9 8.07-33.2-1.19-0.6-2.84-1.1-3.66-1.1-1.02 0-1.1 0.2-0.25 0.5 0.69 0.3 1.25 0.9 1.25 1.4s-0.68 0.6-1.5 0.3c-2.58-1-1.64 1.6 1.02 2.9 2.57 1.1 2.86 3.6 0.35 2.9-5.65-1.5-5.56-1.5-3.37 0.3 1.83 1.6 1.84 1.7 0.14 1.1-1.38-0.4-1.71-0.2-1.28 1 0.37 0.9-0.01 1.5-1.09 1.5-1.3 0-1.4 0.2-0.47 1.2 1.74 1.7 1.47 2.8-0.55 2.1-1.5-0.4-1.47-0.3 0.19 1.1 1.07 0.9 2.57 1.6 3.33 1.6 0.77 0 1.19 0.5 0.94 1.2-0.26 0.7-1.08 1.1-1.84 0.9-4.69-1.3-5.38-1.3-3.87-0.2 1.29 0.9 1.26 1-0.25 1-0.96 0.1-1.75 0.5-1.75 1.1 0 0.5 0.45 1 1 1s1 0.4 1 0.9-1.01 0.7-2.25 0.4c-2.09-0.5-2.12-0.4-0.5 0.9 2.31 1.9 2.21 2.7-0.25 2.1-3.13-0.9-2.34 1.3 1 2.7 1.65 0.6 3 1.7 3 2.2 0 1-2.98 0.7-6.25-0.7-1.06-0.5-1.75-0.3-1.75 0.4 0 0.6 0.67 1.1 1.5 1.1 0.82 0 1.5 0.4 1.5 1s-0.85 0.8-2 0.5c-2.47-0.8-2.65 1-0.25 2.4 1.56 0.9 1.51 1-0.5 1-1.24 0-2.25 0.5-2.25 1.1 0 0.5 0.45 1 1 1s1 0.4 1 0.9-1.01 0.6-2.25 0.3c-3.12-0.7-1.3 1 2.31 2.3 1.6 0.5 2.9 1.4 2.88 2-0.03 1-1.93 1-5.94 0-2.29-0.6-2.35-0.6-0.75 0.7 1.88 1.6 2.43 3.3 0.7 2.2-0.58-0.3-1.77-0.3-2.65 0-1.42 0.5-1.39 0.8 0.3 2.2 1.83 1.5 1.82 1.5-0.35 1-2.73-0.6-3.09 1.8-0.5 3.3 1.48 0.8 1.28 1-1.25 1.1-2.8 0.1-2.67 0.2 1.97 2.3 5.8 2.6 4.73 4.4-1.36 2.2-4.39-1.5-5.19-1.1-2.36 1.2 1.62 1.3 1.58 1.4-0.5 0.9-1.24-0.2-2.25-0.1-2.25 0.3 0 0.8 9 4 10.44 3.6 0.51-0.1 5.53-14.5 11.15-32.1zm29.09 22c8.43-5.3 15.32-9.9 15.32-10.4 0-0.7-9.45-13.6-12.02-16.4-0.8-0.9-29.98 18.2-29.98 19.6 0 0.4 1.63 3.3 3.62 6.5s4.25 6.8 5.02 8 1.7 2.3 2.06 2.3c0.37 0 7.56-4.3 15.98-9.6zm-13.1 1.9c-0.34-0.9-0.42-1.8-0.17-2.1 0.79-0.8 2.59 0.8 2.59 2.3 0 2-1.64 1.8-2.42-0.2zm4.09-2c-0.37-0.4-0.67-1.3-0.67-2.1 0-1.2 0.28-1.2 1.5-0.2 0.82 0.6 1.5 1.6 1.5 2.1 0 1-1.39 1.1-2.33 0.2zm-7.26-2.7c-0.85-2.2 0.28-3.3 1.81-1.8 0.9 0.9 0.9 1.4 0.01 2.3s-1.32 0.8-1.82-0.5zm10.72 0c-0.61-0.7-0.82-1.6-0.46-2 0.75-0.7 3.33 1.2 3.33 2.5s-1.61 1-2.87-0.5zm-7.46-3c-0.29-0.8-0.27-1.7 0.06-2 0.7-0.7 3.27 1.2 3.27 2.5 0 1.4-2.74 1-3.33-0.5zm11 0.7c-1.16-1.2-0.73-2.3 0.83-2.3 0.82 0 1.5 0.6 1.5 1.5 0 1.5-1.18 1.9-2.33 0.8zm-7.33-2.9c-0.32-0.8-0.34-1.8-0.03-2.1 0.87-0.9 2.69 0.6 2.69 2.2 0 1.9-1.91 1.9-2.66-0.1zm9.63-5.6c-4.02-6.8-4.15-7.2-2.42-8.5 1.01-0.7 2.16-1.3 2.56-1.3 0.9 0 12.32 12.9 11.78 13.3-2.35 1.9-5.57 3.7-6.5 3.7-0.64 0-3.08-3.3-5.42-7.2zm-20.3 5.5c-1.16-1.2-0.73-2.3 0.83-2.3 0.82 0 1.5 0.6 1.5 1.5 0 1.5-1.18 1.9-2.33 0.8zm3.67-2.9c-0.32-0.8-0.34-1.8-0.03-2.1 0.87-0.9 2.69 0.6 2.69 2.2 0 1.9-1.91 1.9-2.66-0.1zm10.66-0.6c0-1.7 0.25-1.9 1.5-0.8 0.82 0.6 1.5 1.6 1.5 2.1s-0.68 0.9-1.5 0.9c-0.86 0-1.5-0.9-1.5-2.2zm-6.59-1.2c-0.85-2.2 0.28-3.3 1.81-1.8 0.9 0.9 0.9 1.4 0.01 2.3s-1.32 0.8-1.82-0.5zm3.26-3c-0.62-1.7 0.22-2.8 1.47-2.1 1.13 0.8 1.11 3.5-0.03 3.5-0.5 0-1.14-0.7-1.44-1.4zm-49.83 13.8c5.62-1.6 7.98-2.9 7.03-3.9-0.28-0.3-2.02-0.1-3.87 0.5-1.85 0.5-3.57 0.7-3.83 0.5-0.25-0.3 1.23-2.3 3.29-4.6 3.09-3.4 6.54-9.4 6.54-11.3 0-1.4-3.5-3.6-5.71-3.6-4.52 0-10.1 2.1-10.62 4.1-0.57 2.2-0.52 2.2 2.78 0.7 3.39-1.5 7.55 0.3 7.55 3.3 0 2-5.66 8.3-9.4 10.4-1.36 0.8-1.68 1.6-1.17 3.2 0.84 2.7 0.39 2.7 7.41 0.7zm109.31-13.9c0.08-1.4 0.19-3.1 0.25-3.7 0.11-1.4-4.06-2.7-6.65-2-1.22 0.3-1.75 1.4-1.75 3.6 0 4 0.53 4.6 4.67 4.6 2.84 0 3.35-0.4 3.48-2.5zm-94.56-21.9c-0.31-1.2-0.57-5.9-0.58-10.5l-0.01-8.3-3.25 0.7c-3.45 0.7-7.13 4-6.16 5.6 0.32 0.5 1.4 0.7 2.41 0.4 1.61-0.6 1.91 0.2 2.49 6.2 0.85 8.9 1 9.2 3.53 8.5 1.6-0.4 2-1 1.57-2.6zm90.98-19.2c-2.63-4-4.57-3.1-4.57 2 0 3.8 0.3 4.5 2.25 4.7 3.18 0.5 4.5-3.3 2.32-6.7z"/>
      <path id="path34710" style="fill:#239693" d="m-464.57 1162.9v-45.4l3.5-0.7c2-0.4 3.5-1.3 3.5-2 0-0.8 0.9-1.4 2-1.4 1.54 0 2-0.7 2-3 0-3.5-2.4-4.6-7.47-3.2l-3.53 1v-5.4-5.4h75.49 75.49l-0.02 55.5-0.01 55.5h-37.48-37.47v-2.5c0-1.4-0.48-2.5-1.07-2.5-2.03 0-4.93 2-4.93 3.5 0 1.2-2.07 1.5-11.5 1.5h-11.5v-4.4c0-5.8-1.61-7.1-8.19-6.3-5.68 0.7-6.42 1.4-7.35 6.9l-0.64 3.8h-15.41-15.41v-45.5zm67.82-9.6c5.64-17.6 10.01-32.4 9.71-32.9-0.78-1.2-6.53-3.1-6.53-2.1 0 0.5 0.56 1.1 1.25 1.4 0.75 0.3 0.54 0.5-0.5 0.6-2.4 0.1-2.21 2.8 0.25 3.6 1.1 0.3 2 1.1 2 1.6 0 0.6-0.68 0.8-1.5 0.5-0.83-0.4-2.18-0.9-3-1.2-0.83-0.4-1.5-0.2-1.5 0.4 0 0.5 0.56 1.2 1.25 1.5 0.77 0.3 0.61 0.5-0.43 0.6-2.23 0.1-3.47 4-1.68 5.3 1.04 0.7 0.94 0.8-0.39 0.4-1.12-0.4-1.75-0.1-1.75 0.9 0 0.8 1.12 1.7 2.5 2.1 1.37 0.3 2.5 1 2.5 1.5 0 0.9-1.78 0.6-5.54-0.8-0.57-0.2-1.63 1.3-2.36 3.3-1.1 3-1.1 3.8 0.04 4.6 1.06 0.7 0.99 0.8-0.31 0.4-3.05-1-2.84 2.1 0.24 3.4 1.61 0.7 2.93 1.6 2.93 2.2 0 0.5-0.78 0.7-1.75 0.3-3.65-1.5-5.25-1.7-5.25-0.7 0 0.7 0.56 1.2 1.25 1.2 0.69 0.1 0.43 0.4-0.58 0.8-1 0.4-1.67 1-1.5 1.3 0.18 0.3-0.32 1.3-1.11 2.3-1.24 1.5-1.24 1.8 0 2.6 1.18 0.8 1.13 0.9-0.31 0.9-2.87 0.1-1.99 1.9 1.24 2.6 2.86 0.6 4.71 2.1 3.76 3-0.24 0.3-2.06-0.2-4.04-1-3.83-1.6-6.05-0.5-2.98 1.5 1.59 1 1.6 1.1 0.05 0.6-2.54-0.8-3.39 1.4-1.18 3.1 1.83 1.4 1.82 1.4-0.23 0.8-2.73-0.8-3.99 2-1.58 3.5 1.44 0.9 1.36 1-0.54 0.4-3.89-1-2.49 1.5 1.75 3.2 5.27 2.1 5.18 3.7-0.11 1.8-4.78-1.7-7.29-0.8-3.78 1.3 1.42 0.8 1.64 1.2 0.55 0.8-1.01-0.3-2.34-0.2-2.95 0.1-1.08 0.7 7.25 4.1 10.33 4.3 1.16 0 4.08-7.9 11.78-32zm30.02 21c7.34-4.5 13.57-8.9 13.85-9.6 0.74-1.9-11.69-17.6-13.43-16.9-3 1.2-28.26 18.9-28.26 19.8 0 0.6 2.31 4.8 5.15 9.4 4.88 8 5.25 8.3 7.25 7 1.15-0.7 8.1-5.1 15.44-9.7zm-13.84 1.5c0-0.9 0.45-1.3 1-0.9 0.55 0.3 1 1 1 1.5s-0.45 1-1 1-1-0.7-1-1.6zm3.46-1.5c-0.37-0.6-0.42-1.3-0.13-1.6 0.72-0.7 2.67 0.5 2.67 1.7 0 1.3-1.73 1.2-2.54-0.1zm4.12-1.8c-0.43-0.7-0.51-1.5-0.18-1.9 0.89-0.9 1.87 0.5 1.39 1.9-0.34 1-0.58 1-1.21 0zm-11.12-1.2c-1.08-1.7 0.15-2.1 1.52-0.5 0.79 1 0.86 1.6 0.2 1.6-0.58 0-1.36-0.5-1.72-1.1zm4.12-1.8c-0.43-0.7-0.51-1.5-0.18-1.9 0.89-0.9 1.87 0.5 1.39 1.9-0.34 1-0.58 1-1.21 0zm10.02-0.7c-0.37-1-0.15-1.5 0.59-1.2 1.49 0.5 2.31 2.8 1 2.8-0.54 0-1.25-0.8-1.59-1.6zm5.68-2.8c-1.03-1.3-2.97-4.5-4.31-7-2.32-4.4-2.36-4.7-0.7-6.3 1.66-1.7 2.03-1.5 7.69 4.7l5.94 6.5-2.51 2.2c-3.14 2.8-3.8 2.8-6.11-0.1zm-22.61 0.7c-0.37-0.4-0.67-1.1-0.67-1.7s0.46-0.6 1.18 0.1c0.65 0.7 0.95 1.5 0.67 1.7-0.29 0.3-0.82 0.3-1.18-0.1zm9.87-0.3c-0.68-1.1 0.9-2.3 1.82-1.3 0.95 0.9 0.77 2.3-0.3 2.3-0.52 0-1.2-0.5-1.52-1zm4.13-1.7c-0.96-1-0.83-2.3 0.22-2.3 0.49 0 1.15 0.6 1.47 1.5 0.59 1.5-0.48 2-1.69 0.8zm-11.17-1.3c-0.34-0.6-0.17-1 0.38-1s1.28 0.4 1.62 1c0.34 0.5 0.17 1-0.38 1s-1.28-0.5-1.62-1zm4.17-1.7c-0.37-0.4-0.67-1.1-0.67-1.7s0.46-0.6 1.18 0.1c0.65 0.7 0.95 1.5 0.67 1.7-0.29 0.3-0.82 0.3-1.18-0.1zm3.91-2.2c-0.43-0.7-0.51-1.5-0.18-1.9 0.89-0.9 1.87 0.5 1.39 1.9-0.34 1-0.58 1-1.21 0zm11.42 22.4c0-3-0.61-3.1-4.39-0.6l-2.89 1.9 2.39 0.4c4.53 0.9 4.89 0.8 4.89-1.7zm-30.71-9c-1.47-3-2.48-5.6-2.24-5.8 0.25-0.2 7.76-5.7 16.7-12.3 14.91-10.9 16.25-12.1 16.22-14.9s-0.13-2.9-1.15-1c-0.61 1.1-1.22 2.1-1.34 2.2-0.12 0.2-1.39-0.2-2.82-0.8-2.28-1.1-2.83-1-4.44 1-1.65 2.1-2.07 2.2-4.06 0.9-1.72-1-2.07-1.9-1.61-4.1 0.5-2.2 0.16-2.9-1.93-3.9-2.39-1.1-2.45-1.3-1.11-3.9 1.31-2.5 1.27-2.8-0.54-3.2-1.08-0.3-2.23-0.1-2.55 0.4s-3.63 10.7-7.35 22.6c-3.73 12-7.09 22.8-7.48 24-0.59 1.8-0.21 2.3 2.6 3.1 5.78 1.7 5.94 1.5 3.1-4.3zm-30.75-0.2c4.07-1 6.46-2.1 6.46-3 0-1-0.96-1.2-4.24-0.7l-4.25 0.7 4.67-5.2c7.55-8.4 7.45-14.1-0.24-14.1-6.34 0-10.88 2.3-10.93 5.7-0.01 0.9 0.75 0.8 3.13-0.2 9.22-3.8 9.89 5.1 0.83 11.1-2.77 1.8-3.97 3.3-3.97 5 0 2.8 0.24 2.8 8.54 0.7zm18.44-23.7c5.04-12.5 8.93-23.1 8.65-23.3-0.28-0.3-2.9-0.6-5.82-0.7l-5.31-0.1-0.03 7.5c-0.03 8.8-0.82 10.5-5.47 11.3-3.29 0.6-3.51 0.5-3.6-2.1-0.27-7.6-1.51-12-3.75-13-2.21-1-2.32-0.8-4.1 8.1-1.01 5-2.04 9.7-2.3 10.4-0.33 0.9 0.93 1.3 4.42 1.3 10.23 0 12.4 6.5 4.95 14.9l-2.12 2.3 2.75-0.6c3.18-0.8 3.21-0.7 1.33 3.8-1.34 3.2-1.04 5.5 0.51 3.8 0.4-0.4 4.85-11 9.89-23.6zm-19.98 10.7c0-0.7-0.59-1.3-1.3-1.3-2.05 0-3.7 2.1-3.7 4.8v2.5l2.5-2.3c1.37-1.3 2.5-3 2.5-3.7zm110.8-1.9c0.38-3.9-1.64-5.7-5.99-5.3-2.8 0.3-3.36 0.8-3.64 3.2-0.55 4.8 0.36 5.8 5.07 5.5 3.95-0.3 4.28-0.6 4.56-3.4zm-96.18-18.2c1.55-1 1.31-21.2-0.25-21.2-4-0.1-7.26 1.4-8.31 3.7-0.91 2-0.89 2.8 0.1 3.4 0.7 0.4 1.79 0.3 2.42-0.2 0.85-0.7 1.34 1.2 1.86 7 0.68 7.9 1.4 9.1 4.18 7.3zm38.47-0.8c1.38-1.3 2.18-1.4 3.85-0.5 3.51 1.9 4.74 0 1.62-2.5-2.72-2.1-2.74-2.2-1.05-4.8 1.7-2.6 1.69-2.6-0.85-2.6-1.41 0-2.99 0.7-3.52 1.7-0.8 1.4-1.36 1.5-3.51 0.5-1.81-0.8-2.76-0.8-3.22-0.1-0.62 1-0.06 1.6 3.45 3.7 1.04 0.7 1.11 1.4 0.29 2.9-1.73 3.2 0.08 4.3 2.94 1.7zm9.54-9.2c-1.1-1.1-1.62-0.9-3.06 1.3-0.95 1.4-1.58 2.8-1.4 2.9s1.23 0.8 2.33 1.3c1.73 1 2.1 0.8 2.73-1.5 0.47-1.8 0.26-3.2-0.6-4zm-10.63-1.2c0-0.6-1.01-1-2.25-1-1.82 0-1.96 0.2-0.75 1 1.94 1.2 3 1.2 3 0zm55.81-6.2c0.45-3.9-1.43-6.8-4.35-6.8-2.2 0-2.46 0.4-2.46 3.9 0 2.7 0.55 4.3 1.75 5 2.75 1.6 4.72 0.8 5.06-2.1z"/>
      <path id="path34708" style="fill:#2c5f8d" d="m-456.47 1203.6c1.18-7.2 1.16-7.2-2.13-7.2-1.84 0-3.27-0.7-3.64-1.6-0.33-0.9 0.45-6.4 1.75-12.3 2.83-12.8 3.14-20.4 0.86-20.9-1.09-0.2-2.05 1.1-3.16 4.5l-1.59 4.8-0.1-5.1c-0.05-2.8 0.57-6.5 1.38-8.1 1.79-3.6 4.53-16.2 4.53-20.9 0-3.2-0.25-3.4-3-3.4-2 0-3-0.5-3-1.5 0-1.1 1.05-1.5 3.5-1.5h3.5v-6-5.9l-3.5 0.6c-4.66 0.7-4.61-1.3 0.05-2.2 1.96-0.3 3.8-1.3 4.11-2.1 0.3-0.8 1.18-1.4 1.95-1.4 0.87 0 1.39-1.1 1.39-3 0-3.6-3.21-4.9-7.98-3.2-2.67 0.9-3.02 0.8-3.02-0.8 0-2.3 5.13-3.6 9.92-2.6 3.26 0.8 4.78 3.8 3.78 7.6-0.5 1.9 0.04 2 22.86 2 20.26 0 23.3-0.2 22.81-1.5-0.46-1.2-2.46-1.5-10.22-1.3-8.64 0.2-10.1 0-13.91-2.2-3.17-1.8-4.5-3.3-5.24-6-1.28-4.6-1.25-5 0.25-5 0.71 0 1.3 1.3 1.36 3.2 0.09 2.2 0.99 3.8 3 5.4 3.85 3.1 7.87 3.8 15.73 2.5 7.97-1.2 10.49-0.6 11.3 2.6 0.62 2.4 0.64 2.4 10.74 2 5.56-0.3 12.03-1 14.36-1.5 3.22-0.7 4.67-0.6 6 0.4 0.97 0.7 3.22 1.3 5.01 1.3l3.25 0.1v-8c0-4.4 0.4-8 0.88-8 1.31 0 2.09 3.7 2.1 10.2l0.02 5.8h7.9 7.9l0.67-6.3c0.92-8.6 1.36-9.7 3.65-9.7 1.86 0 1.89 0.1 0.44 2.2-0.99 1.4-1.56 4.4-1.56 8.1v5.9l10.75-0.6c6.45-0.4 11.35-0.3 12.25 0.3 1.06 0.7 1.46 2.6 1.37 6.5-0.11 4.8 0.12 5.6 1.75 5.6 1.03 0 1.88 0.6 1.88 1.5 0 0.8-0.92 1.5-2.25 1.5-1.45 0-2.86 1-3.95 3-1.03 1.8-2.53 3-3.75 3-1.9 0-2.05 0.6-2.05 8v8h3.78c5.97 0 8.26 2.2 8.08 7.8-0.07 2.6-0.48 5.1-0.89 5.7-0.41 0.5-1.05 2.4-1.44 4.2-0.55 2.6-0.37 3.3 0.89 3.3 0.87 0 1.58 0.6 1.58 1.5 0 0.8-0.6 1.5-1.32 1.5-1.72 0-4.16 14.6-3.25 19.4 0.49 2.6 1.17 3.6 2.61 3.6 1.13 0 1.96 0.6 1.96 1.6 0 1.2-0.61 1.4-2.74 0.9-1.51-0.4-3.11-1.2-3.57-1.9-0.45-0.6-0.56-6.2-0.25-12.4l0.57-11.2h-3.01-3v9.9c0 5.9-0.42 10-1.04 10.2-0.57 0.2-1.06 3.4-1.08 7.1-0.05 5.4-0.36 6.8-1.61 6.8-1.32 0-1.47-1.1-0.97-7l0.58-7h-19.44-19.44v2.8c0 4.1-1.72 5.2-8.12 5.2-7.29 0-8.88 0.6-8.88 3.6 0 1.4-0.59 2.4-1.5 2.4-0.93 0-1.5-1-1.5-2.5 0-1.4-0.48-2.5-1.07-2.5-2.03 0-4.93 2-4.93 3.5 0 0.8-0.45 1.5-1 1.5s-1-1.2-1-2.5c0-1.8 0.92-3 3.25-4.2 2.56-1.4 2.87-1.8 1.45-2.1-2.76-0.6-6.7 2.5-7.36 5.8-0.84 4.2-2.52 3.7-2.15-0.7 0.36-4.3 3.51-7.1 8.98-8 3.08-0.5 3.72-0.3 4.29 1.5 0.58 1.9 1.44 2.2 6.36 2.1 8.1 0 10.18-0.7 10.18-3.6v-2.3h-17.87-17.86l0.5 7c0.33 4.6 0.14 7-0.59 7-0.65 0-1.21-2.8-1.39-6.8l-0.29-6.7-4.81-0.3-4.81-0.4 1.55 2.4c0.86 1.3 1.85 4.5 2.2 7.1 0.54 3.9 0.38 4.7-1 4.7-1.26 0-1.63-1-1.63-4.3 0-5.3-1.31-6.7-6.14-6.7-6.67 0-8.64 1.3-9.41 6.4-0.78 5.2-2.46 6.1-2.44 1.3 0.03-5.5 1.14-7.9 4.38-9.3 3.02-1.3 2.91-1.4-3.59-1.4-7.65 0-16.95 1.7-18.04 3.3-0.4 0.7-0.74 2.6-0.75 4.3-0.02 4.1-0.9 6.4-2.46 6.4-0.92 0-1.03-1.3-0.45-4.8zm-1.19-16c-0.08-5.8-0.72-5.1-2.22 2.5-0.49 2.5-0.3 3.3 0.83 3.3 1.14 0 1.46-1.3 1.39-5.8zm37.09-4.2c0-1.6 0.94-5 2.08-7.7 3.34-7.7 18.94-46.5 20.38-50.6l1.3-3.7h-6.26c-7.37 0-7.46 0.1-7.5 12-0.02 4.1-0.36 8-0.77 8.6-0.4 0.6-2.31 1.4-4.23 1.7-3.29 0.6-3.51 0.5-3.6-2.1-0.28-8-1.49-12-3.98-13.1-2.07-0.9-2.32-1.5-1.46-3.1 2.06-3.8 1.41-4-11.46-4h-12.5v32.5 32.5h14 14v-3zm-16.89-5.9c-3.07-6-2.35-7.9 4.79-12.5 7.57-4.8 6.6-8.6-1.11-4.3l-5.04 2.8 0.7-3.8c1.55-8.4 4.96-11.2 14.08-11.3 8.57-0.1 10.84 5.4 5.36 12.9l-3.1 4.3 2.68-0.6c2.45-0.7 2.63-0.5 1.98 1.6-1.03 3.3-3.29 7.5-4.41 8.2-0.54 0.4-4.15 1.5-8.03 2.5-6.51 1.7-7.12 1.7-7.9 0.2zm11.43-4.8c4.07-1 6.46-2.1 6.46-3 0-1-0.96-1.2-4.24-0.7l-4.25 0.7 4.67-5.2c7.55-8.4 7.45-14.1-0.24-14.1-6.34 0-10.88 2.3-10.93 5.7-0.01 0.9 0.75 0.8 3.13-0.2 9.22-3.8 9.89 5.1 0.83 11.1-2.77 1.8-3.97 3.3-3.97 5 0 2.8 0.24 2.8 8.54 0.7zm36.46 13.3c0-0.3-1.39-3.5-3.1-7.3-1.7-3.8-3.49-7.9-3.98-9.1-0.82-2.1 0.39-3.2 14.59-13.8 8.51-6.3 16.09-11.4 16.83-11.4 1.85 0 17.66 21.4 17.66 23.9 0 0.5-5.33 3.9-11.85 7.6-19.77 11.2-20.08 10.4 4.1 10.4l20.75 0.1v-32.5-32.5h-24.89-24.89l-4.56 14.2c-2.51 7.8-6.84 21.7-9.63 30.8-2.78 9-5.31 17.2-5.61 18.2-0.5 1.6 0.26 1.8 7.01 1.8 4.16 0 7.57-0.2 7.57-0.4zm10.52-44.2c-1.64-1.2-1.77-1.8-0.78-3.4 1.03-1.6 0.81-2.2-1.49-3.9-2.52-1.8-2.61-2.1-1.29-4.6 0.81-1.5 1.98-2.4 2.73-2.1 0.72 0.3 1.95 0.8 2.74 1.1 0.92 0.4 2-0.5 3.03-2.5 0.87-1.7 1.93-3 2.34-3 0.6 0 3.96 2 6.06 3.6 0.2 0.1-0.58 1.5-1.75 2.9-2.69 3.5-2.65 3.9 0.43 5.3 2.24 1 2.4 1.4 1.36 3.4-0.64 1.2-1.28 2.4-1.41 2.5-0.13 0.2-1.43-0.2-2.9-0.9-2.35-1-2.83-0.9-4.18 1-1.79 2.5-2.25 2.6-4.89 0.6zm4.57-3c1.41-1.3 2.16-1.4 3.93-0.4 3.4 1.8 4.83-0.4 1.61-2.5-2.5-1.7-2.53-1.8-1.01-4.8 1.3-2.5 1.33-3.2 0.22-3.9-2-1.2-2.38-1.1-3.84 1.7-1.48 2.7-2.23 2.9-5.01 1.5-1.29-0.7-2.08-0.7-2.56 0.1-0.64 1-0.09 1.6 3.52 3.8 1.2 0.7 1.23 1.1 0.17 2.4-0.71 0.9-1 2-0.65 2.6 0.88 1.4 1.57 1.3 3.62-0.5zm-22.27 14.5c5.64-17.6 10.01-32.4 9.71-32.9-0.78-1.2-6.53-3.1-6.53-2.1 0 0.5 0.56 1.1 1.25 1.4 0.75 0.3 0.54 0.5-0.5 0.6-2.4 0.1-2.21 2.8 0.25 3.6 1.1 0.3 2 1.1 2 1.6 0 0.6-0.68 0.8-1.5 0.5-0.83-0.4-2.18-0.9-3-1.2-0.83-0.4-1.5-0.2-1.5 0.4 0 0.5 0.56 1.2 1.25 1.5 0.78 0.3 0.62 0.5-0.42 0.6-2.35 0.1-4.61 7-2.7 8.2 0.75 0.4 1.93 0.8 2.62 0.8 0.69 0.1 1.25 0.5 1.25 1.1 0 1-1.6 0.8-5.54-0.7-0.57-0.2-1.63 1.3-2.36 3.3-1.1 3-1.1 3.8 0.04 4.6 1.06 0.7 0.99 0.8-0.31 0.4-3.05-1-2.84 2.1 0.24 3.4 1.61 0.7 2.93 1.6 2.93 2.2 0 0.5-0.78 0.7-1.75 0.3-3.65-1.5-5.25-1.7-5.25-0.7 0 0.7 0.56 1.2 1.25 1.2 0.69 0.1 0.43 0.4-0.58 0.8-1 0.4-1.67 1-1.5 1.3 0.18 0.3-0.32 1.3-1.11 2.3-1.24 1.5-1.24 1.8 0 2.6 1.18 0.8 1.13 0.9-0.31 0.9-2.87 0.1-1.99 1.9 1.24 2.6 2.86 0.6 4.71 2.1 3.76 3-0.24 0.3-2.06-0.2-4.04-1-3.83-1.6-6.05-0.5-2.98 1.5 1.59 1 1.6 1.1 0.05 0.6-2.54-0.8-3.39 1.4-1.18 3.1 1.83 1.4 1.82 1.4-0.23 0.8-2.73-0.8-3.99 2-1.58 3.5 1.44 0.9 1.36 1-0.54 0.4-3.89-1-2.49 1.5 1.75 3.2 5.27 2.1 5.18 3.7-0.11 1.8-4.78-1.7-7.29-0.8-3.78 1.3 1.42 0.8 1.64 1.2 0.55 0.8-1.01-0.3-2.34-0.2-2.95 0.1-1.08 0.7 7.25 4.1 10.33 4.3 1.16 0 4.08-7.9 11.78-32zm30.02 21c7.34-4.5 13.57-8.9 13.85-9.6 0.74-1.9-11.69-17.6-13.43-16.9-3 1.2-28.26 18.9-28.26 19.8 0 0.6 2.31 4.8 5.15 9.4 4.88 8 5.25 8.3 7.25 7 1.15-0.7 8.1-5.1 15.44-9.7zm-13.84 1.5c0-0.9 0.45-1.3 1-0.9 0.55 0.3 1 1 1 1.5s-0.45 1-1 1-1-0.7-1-1.6zm3.46-1.5c-0.37-0.6-0.42-1.3-0.13-1.6 0.72-0.7 2.67 0.5 2.67 1.7 0 1.3-1.73 1.2-2.54-0.1zm4.12-1.8c-0.43-0.7-0.51-1.5-0.18-1.9 0.89-0.9 1.87 0.5 1.39 1.9-0.34 1-0.58 1-1.21 0zm-11.12-1.2c-1.08-1.7 0.15-2.1 1.52-0.5 0.79 1 0.86 1.6 0.2 1.6-0.58 0-1.36-0.5-1.72-1.1zm4.12-1.8c-0.43-0.7-0.51-1.5-0.18-1.9 0.89-0.9 1.87 0.5 1.39 1.9-0.34 1-0.58 1-1.21 0zm10.02-0.7c-0.37-1-0.15-1.5 0.59-1.2 1.49 0.5 2.31 2.8 1 2.8-0.54 0-1.25-0.8-1.59-1.6zm5.68-2.8c-1.03-1.3-2.97-4.5-4.31-7-2.32-4.4-2.36-4.7-0.7-6.3 1.66-1.7 2.03-1.5 7.69 4.7l5.94 6.5-2.51 2.2c-3.14 2.8-3.8 2.8-6.11-0.1zm-22.61 0.7c-0.37-0.4-0.67-1.1-0.67-1.7s0.46-0.6 1.18 0.1c0.65 0.7 0.95 1.5 0.67 1.7-0.29 0.3-0.82 0.3-1.18-0.1zm9.87-0.3c-0.68-1.1 0.9-2.3 1.82-1.3 0.95 0.9 0.77 2.3-0.3 2.3-0.52 0-1.2-0.5-1.52-1zm4.13-1.7c-0.96-1-0.83-2.3 0.22-2.3 0.49 0 1.15 0.6 1.47 1.5 0.59 1.5-0.48 2-1.69 0.8zm-11.17-1.3c-0.34-0.6-0.17-1 0.38-1s1.28 0.4 1.62 1c0.34 0.5 0.17 1-0.38 1s-1.28-0.5-1.62-1zm4.17-1.7c-0.37-0.4-0.67-1.1-0.67-1.7s0.46-0.6 1.18 0.1c0.65 0.7 0.95 1.5 0.67 1.7-0.29 0.3-0.82 0.3-1.18-0.1zm3.91-2.2c-0.43-0.7-0.51-1.5-0.18-1.9 0.89-0.9 1.87 0.5 1.39 1.9-0.34 1-0.58 1-1.21 0zm57.42 8.2c0-2.6-0.41-3.3-1.92-3.3-1.05 0-2.63-0.3-3.5-0.6-1.28-0.5-1.58 0.1-1.58 3.3 0 4.8 0.21 5 3.99 4.5 2.67-0.4 3.01-0.9 3.01-3.9zm1.8-9.9c0.38-3.9-1.64-5.7-5.99-5.3-2.8 0.3-3.36 0.8-3.64 3.2-0.55 4.8 0.36 5.8 5.07 5.5 3.95-0.3 4.28-0.6 4.56-3.4zm-140.9-3.7l-0.1-5.2-1.22 4.5c-1.09 4-0.72 5.8 1.17 5.9 0.14 0.1 0.2-2.3 0.15-5.2zm44.72-14.5c1.55-1 1.31-21.2-0.25-21.2-4-0.1-7.26 1.4-8.31 3.7-0.91 2-0.89 2.8 0.1 3.4 0.7 0.4 1.79 0.3 2.42-0.2 0.85-0.7 1.34 1.2 1.86 7 0.68 7.9 1.4 9.1 4.18 7.3zm90.92-8.9c1.57-1.6 1.57-1.8-0.12-3-2.7-2-3.42-1.6-3.42 1.7s1.07 3.7 3.54 1.3zm2.27-8.5c0.45-3.9-1.43-6.8-4.35-6.8-2.2 0-2.46 0.4-2.46 3.9 0 2.7 0.55 4.3 1.75 5 2.75 1.6 4.72 0.8 5.06-2.1zm-42.57 83.5c2.26-2.3 3.79-2.8 9.21-3.2 3.57-0.2 7.6-0.1 8.95 0.2 4.22 1.1 7.54 5.7 4.1 5.7-0.83 0-1.5-0.4-1.5-0.9 0-1.5-5.89-3.1-10.9-3.1-3.02 0-5.46 0.7-7.1 2-3.88 3-5.96 2.5-2.76-0.7z"/>
      <path id="path34706" style="fill:#0d3975" d="m-455.99 1202.4c0.66-5.9 0.61-6-1.7-6.1-4.96 0-5.15-0.8-2.69-12 2.75-12.6 3.08-23.3 0.75-23.7-1.09-0.2-2.07 1.2-3.19 4.5l-1.62 4.8 0.17-5c0.1-2.8 0.57-5.3 1.05-5.7 1.01-0.7 4.09-13.1 5.12-20.7 0.69-4.9 0.62-5.1-1.63-5.2-1.29 0-3.02-0.4-3.84-0.9-1.1-0.7-0.36-1 2.75-1h4.25v-6.7-6.6l-4 0.5c-2.2 0.3-4 0.2-4-0.3s1.09-0.9 2.42-0.9c3.45 0 5.58-1 5.58-2.6 0-0.8 0.62-1.4 1.38-1.4 1.6 0 2.75-3.5 1.9-5.8-0.47-1.2-1.71-1.4-6-0.9-3.92 0.4-5.3 0.2-5.01-0.7 0.45-1.3 5.97-2.3 9.98-1.8 2.52 0.4 2.75 0.7 2.75 4.8v4.4h23.5c12.92 0 23.5-0.4 23.5-0.9s-0.68-1.5-1.52-2.2c-1.16-0.9-2.98-1-7.75-0.2-11.67 1.9-20.93-2.6-20.58-10l0.15-3.2 0.43 3c0.51 3.5 2.62 6.1 6.69 8.2 2.34 1.2 4.91 1.4 12.74 0.8l9.81-0.7 1.21 2.7 1.22 2.6 10.55-0.5c5.8-0.3 12.41-0.8 14.68-1.2 2.59-0.4 4.39-0.2 4.81 0.5 0.37 0.6 2.71 1.1 5.19 1.1h4.51l-0.7-8c-0.45-5.2-0.34-8 0.31-8 1.48 0 2.14 4.6 1.51 10.7l-0.54 5.3h9.14 9.14v-5.5c0-5.7 1.32-10.5 2.86-10.5 0.49 0 0.3 1.6-0.44 3.7-0.73 2.1-1.35 5.7-1.38 8.2l-0.04 4.4 10.65-0.6c13.72-0.8 14.57-0.4 14.23 7.1-0.25 5.2-0.09 5.6 2.18 6.3 2.42 0.7 2.42 0.7 0.14 0.8-1.46 0-2.91 1.2-4 3.1-1.03 1.9-2.78 3.3-4.45 3.6-2.72 0.6-2.75 0.7-2.75 8.4v7.7l4.89 0.7c5.87 0.7 7.47 2.4 6.92 7-0.22 2 0.07 3.7 0.64 4 0.66 0.2 0.55 0.8-0.28 1.3-0.73 0.6-1.57 2.8-1.88 5.1-0.45 3.4-0.26 4.2 1.08 4.2 0.89 0 1.63 0.4 1.63 1 0 0.5-0.66 1-1.46 1-1.85 0-2.89 5.2-2.98 14.9-0.06 7 0.1 7.6 2.44 8.8l2.5 1.2h-2.78c-2.1 0.1-3.03-0.6-3.84-2.7-1.03-2.6-0.66-12.1 0.73-19.1 0.63-3.1 0.6-3.1-3.42-3.1h-4.06l-0.59 10.7c-0.32 5.9-0.69 13.6-0.81 17-0.13 3.5-0.57 6.3-0.98 6.3-0.87 0-1.1-2.7-0.79-9.3l0.22-4.7h-19.59-19.59v2.3c0 3.6-2.21 4.8-10.22 5.5-7.08 0.6-7.28 0.7-7.86 3.7l-0.6 3-0.77-2.8c-0.47-1.7-1.46-2.7-2.58-2.7-0.99 0-2.73 1.2-3.86 2.7l-2.05 2.8-0.03-2.7c-0.03-2.2 0.64-2.9 3.47-4 1.92-0.7 3.5-1.6 3.5-2.1 0-1.7-2.9-1.8-5.79-0.3-3.07 1.5-4.21 3.3-4.21 6.6 0 1.1-0.45 2-1 2-1.29 0-1.3-4.6-0.01-7 0.54-1 3.08-2.7 5.64-3.6 4.6-1.8 4.66-1.8 6.42 0.4 1.52 1.9 2.77 2.2 8.88 2.2 6.72 0 7.17-0.2 8.09-2.6 0.54-1.4 0.98-2.8 0.98-3s-8.31-0.4-18.46-0.4h-18.45l-0.35 7.2-0.34 7.3-0.2-7.4-0.2-7.3-20.75 0.4c-11.41 0.2-21.48 0.7-22.38 1.1-1.11 0.5-1.84 2.7-2.3 6.7-0.37 3.3-1.12 6-1.67 6-0.63 0-0.75-2.3-0.32-6zm-0.67-17.8l-0.09-9.7-1.95 8.4c-2.04 8.9-1.92 11.1 0.6 11.1 1.27 0 1.51-1.7 1.44-9.8zm36.93-0.1c-0.94-1.5-0.73-3 1.11-7.5 2.35-5.8 3.52-7.4 2.51-3.4-0.48 2 0 2.5 3.06 3.6 2 0.8 3.42 1.6 3.16 1.8-0.26 0.3-2.04-0.2-3.96-1-3.37-1.4-3.53-1.4-4.61 1-0.61 1.4-1.11 2.6-1.11 2.8 0 0.5 12.26 4.6 12.57 4.3 0.13-0.1 4.95-15 10.73-33.1l10.5-32.8-3.37-1.4c-1.85-0.8-3.78-1.4-4.28-1.4-1.15 0-2.27 5.4-1.21 5.7 0.43 0.2 1.63 1 2.67 1.8 1.73 1.3 1.64 1.4-1.03 0.4-2.97-1-4.53-0.1-4.57 2.8 0 0.6-0.45 1.4-0.98 1.7-0.53 0.4-0.31-1.2 0.5-3.5s1.47-4.4 1.47-4.6-3.15-0.3-7-0.3h-7l-0.02 9.2c-0.01 5.1-0.37 9.8-0.82 10.5-0.44 0.7-2.2 1.7-3.91 2.2l-3.11 0.9-0.69-6.7c-0.55-5.3-1.16-7-3.13-8.6-1.73-1.5-2.24-2.6-1.73-3.9 0.64-1.7 0.79-1.7 1.63-0.2 0.59 1.1 1.62 1.4 2.85 1 1.67-0.5 1.93-0.1 1.94 3.2 0.01 2.1 0.29 5.5 0.63 7.6 0.51 3.1 1.03 3.8 2.99 3.8 2.35 0 2.37-0.1 2.37-11.6v-11.5l-2.75 0.7c-4.47 1.1-7.25 2.3-7.25 3.1 0 0.4-6.3 0.6-14 0.5l-14-0.3v32.5 32.6h15.51c14.92 0 15.46-0.1 14.33-1.9zm-18.2-9.4c-0.84-2.1-1.32-4.4-1.06-5.1 0.26-0.6 2.68-2.4 5.39-3.9 5.75-3.1 8.1-6.4 5.39-7.4-1-0.4-3.39 0.2-5.7 1.5-2.19 1.2-4.12 2-4.28 1.9-0.16-0.2 0.29-2.3 0.99-4.7 1.62-5.5 4.31-7.7 10.39-8.5 5.6-0.8 9.81 0.5 10.7 3.3 0.76 2.4-1.75 8.8-4.68 11.9-2.37 2.5-2.1 2.7 1.65 1.3 1.41-0.5 2.56-0.7 2.55-0.3-0.03 1.4-1.47 2.8-2.98 2.9-0.83 0.1-2.74 0.5-4.25 0.9-2.8 0.7-4-0.8-1.41-1.8 2.29-0.9 7.66-9.9 7.66-12.9 0-2.3-0.56-2.9-3.25-3.6-3.46-0.9-10.3 0.1-12.46 1.9-0.71 0.6-1.29 2-1.29 3 0 1.6 0.33 1.8 1.93 0.9 3.11-1.7 6.89-1.2 8.04 0.9 0.86 1.6 0.48 2.6-2.11 5.6-1.74 1.9-4.43 4.2-5.98 5-1.71 0.9-2.63 2.1-2.35 3 0.26 0.8 0.66 2.1 0.89 2.8 0.36 1.2 1.57 1.1 7.18-0.4 3.72-1.1 6.97-1.7 7.22-1.4 0.84 0.8-2.04 3.5-3.79 3.5-0.95 0-4.23 0.8-7.29 1.8l-5.57 1.8-1.53-3.9zm22.37-5.4c0.01-0.5 0.46-1.5 0.99-2.3 0.83-1.3 0.97-1.3 0.98 0.2 0.01 0.9-0.43 1.9-0.98 2.3-0.55 0.3-0.99 0.2-0.99-0.2zm2.06-4.9c0.04-0.5 0.93-2.7 1.97-4.9 1.31-2.8 1.72-3.2 1.34-1.4-0.48 2.3-0.12 2.8 3.04 3.8 1.97 0.7 3.58 1.6 3.58 2.2 0 0.5-1.68 0.2-3.73-0.7-3.45-1.4-3.83-1.4-5 0.2-0.7 1-1.24 1.3-1.2 0.8zm10.18-15.1c-1.79-0.7-3.25-1.8-3.25-2.3s1.46-0.2 3.25 0.8c4.27 2.2 4.14 2.1 3.67 2.5-0.23 0.2-1.88-0.2-3.67-1zm-2.17-4.4c-0.11-0.8 4.97-13.3 5.64-13.9 0.29-0.3 0.22 0.5-0.16 1.7-0.49 1.6-0.29 2.3 0.68 2.3 0.76 0 2.25 0.6 3.32 1.4 1.76 1.4 1.62 1.4-1.51 0.4-1.98-0.7-3.58-0.8-3.77-0.3-0.86 2.4-4.13 8.9-4.2 8.4zm12.45 31.6l-4.4-9.5 16.09-11.7 16.09-11.7 3.38 3.9c5.02 5.8 14.31 19.6 13.77 20.5-0.26 0.4-6.77 4.5-14.46 9-7.7 4.5-14 8.3-14 8.6 0 0.2 9.67 0.4 21.5 0.4h21.5v-32.6-32.5l-25.71 0.3-25.7 0.3-2.71 8.5c-6.04 18.9-16.88 54.4-16.88 55.1 0 0.5 3.58 0.9 7.97 0.9h7.96l-4.4-9.5zm14.71-35.1c-1.88-1.3-2.07-1.9-1.14-3.6 1.13-2.1 1.02-2.3-2.91-4.7-1.04-0.6-1.07-1.3-0.11-3.4 1.15-2.5 1.31-2.6 4.06-1.2 2.82 1.5 2.89 1.5 4.52-2 1.62-3.4 1.71-3.4 4.5-2 3.23 1.7 3.3 2 1.34 5.5-1.95 3.4-1.88 3.7 1.06 5.2 2.55 1.4 2.56 1.4 0.66 3.7-1.33 1.7-2.12 2-2.64 1.2-0.43-0.7-0.22-1.1 0.53-0.9 2.48 0.5 1.97-2.9-0.6-4.1-2.48-1.1-2.51-1.2-0.93-3.6 1.79-2.7 1.31-5.5-0.94-5.5-0.77 0-2.15 1.1-3.06 2.5-1.4 2.1-1.96 2.3-3.72 1.4-1.53-0.8-2.38-0.8-3.22 0-0.86 0.9-0.55 1.6 1.23 3 1.81 1.3 2.19 2.3 1.64 4-1.07 3.4 1.52 4.6 3.68 1.8 1.44-1.9 1.9-2 3-0.8 0.75 0.8 0.81 1.1 0.15 0.7-0.64-0.4-1.99 0.5-3.01 1.9-1.73 2.4-1.96 2.4-4.09 0.9zm10.52 33.6c8.36-5.3 15.21-10.2 15.22-10.9 0.03-2-11.25-17.1-12.81-17.1-1.37 0-27.32 17.2-29.06 19.3-0.66 0.8 0.15 3 2.5 6.7 1.91 3 4.36 7 5.44 8.8 1.09 1.8 2.32 3.2 2.74 3s7.61-4.6 15.97-9.8zm0.88-13.9c-2-3.3-3.63-6.3-3.62-6.8s1.82 2 4.02 5.4c2.21 3.4 4.52 6.3 5.15 6.3s1.97-0.8 2.98-1.7c1.03-0.9 1.83-1.2 1.83-0.5 0 1.3-3.17 3.2-5.29 3.2-0.79 0-3.07-2.7-5.07-5.9zm47.78 10.3c1.06-0.5 1.58-1.9 1.58-4.5v-3.9h-4.5-4.5v4.5c0 4.3 0.12 4.5 2.92 4.5 1.6 0 3.63-0.3 4.5-0.6zm1-10c1.05-0.5 1.58-1.9 1.58-4.4 0-4.2-1.06-5-6.58-5-3.38 0-3.42 0-3.42 4.4 0 3.8 0.32 4.5 2.25 4.9 3.73 0.7 4.52 0.7 6.17 0.1zm-138.51-10.7l-0.09-8.2-1.89 7c-2.02 7.4-1.91 9.5 0.54 9.5 1.26 0 1.51-1.5 1.44-8.3zm135.49-21c0.85-1.4 0.76-2-0.4-2.8-3.07-1.9-5-1.1-5 2.1 0 2.6 0.35 3 2.15 2.8 1.18-0.2 2.64-1.1 3.25-2.1zm1.34-9.4c-0.53-4.6-2.01-6.5-4.74-6.1-1.01 0.2-1.61 1.7-1.82 4.7-0.34 4.7 0.67 6 4.7 6 2.24 0.1 2.35-0.2 1.86-4.6zm-115.38 82.9c0.87-6.5 3.16-8.2 11.13-8.2 5.96 0 6.32 0.1 7.46 2.8 0.65 1.6 1.02 4.7 0.82 6.8-0.36 3.9-0.37 3.8-1.2-1.4-0.99-6.3-2.85-7.7-8.75-6.7-5.23 0.9-7.82 3.5-7.82 8 0 1.9-0.51 3.5-1.14 3.5-0.77 0-0.93-1.5-0.5-4.8zm71.64 3.8c0-3.8 13.98-6.3 20.25-3.7 2.06 0.9 3.75 2.3 3.75 3.1 0 2.1-0.6 2-3-0.4-1.55-1.6-3.33-2-7.95-2-5.83 0-11.05 1.5-11.05 3.1 0 0.5-0.45 0.9-1 0.9s-1-0.5-1-1z"/>
    </g>
  </g>
  <metadata>
    <rdf:RDF>
      <cc:Work>
        <dc:format>image/svg+xml</dc:format>
        <dc:type rdf:resource="http://purl.org/dc/dcmitype/StillImage"/>
        <cc:license rdf:resource="http://creativecommons.org/licenses/publicdomain/"/>
        <dc:publisher>
          <cc:Agent rdf:about="http://openclipart.org/">
            <dc:title>Openclipart</dc:title>
          </cc:Agent>
        </dc:publisher>
      </cc:Work>
      <cc:License rdf:about="http://creativecommons.org/licenses/publicdomain/">
        <cc:permits rdf:resource="http://creativecommons.org/ns#Reproduction"/>
        <cc:permits rdf:resource="http://creativecommons.org/ns#Distribution"/>
        <cc:permits rdf:resource="http://creativecommons.org/ns#DerivativeWorks"/>
      </cc:License>
    </rdf:RDF>
  </metadata>
</svg>
