<?xml version="1.0" encoding="utf-8"?>
<!-- Generator: Adobe Illustrator 21.0.0, SVG Export Plug-In . SVG Version: 6.00 Build 0)  -->
<svg version="1.1" id="Layer_1" xmlns="http://www.w3.org/2000/svg" xmlns:xlink="http://www.w3.org/1999/xlink" x="0px" y="0px"
	 viewBox="0 0 567.705 395.95" style="enable-background:new 0 0 567.705 395.95;" xml:space="preserve">
<title>NUMERAL SYSTEMS OF THE WORLD</title>
<g>
	<path d="M159.764,69.806h6.841v9.93h-6.841V69.806z"/>
	<path d="M177.243,54.036h4.717v35.78h-4.717V54.036z"/>
	<path d="M189.659,57.797v-3.761h21.187v4.345h-16.08l11.151,31.479h-5.106L189.659,57.797z"/>
	<path d="M215.094,54.036h5.053l2.389,8.009c0.562,0.223,1.168,0.311,1.77,0.257c1.038,0,1.776-0.667,2.212-2
		c0.527-2.048,0.75-4.162,0.664-6.275h4.717c0.015,1.549-0.062,3.097-0.23,4.637c-0.121,1.146-0.419,2.265-0.885,3.319
		c0.778,0.216,1.582,0.321,2.389,0.31c1.265,0.074,2.435-0.672,2.903-1.85c0.555-1.233,0.832-3.372,0.832-6.416h4.717v0.726
		c0,4.047-0.634,6.983-1.903,8.806c-1.268,1.823-3.384,2.752-6.345,2.788c-1.751,0.097-3.491-0.328-5-1.221
		c-0.667,0.729-1.605,1.152-2.593,1.168c-0.766,0.058-1.53-0.134-2.177-0.549l7.859,24.116h-5.053L215.094,54.036z"/>
	<path d="M259.069,90.338c-1.859,0.026-3.71-0.24-5.487-0.788c-1.418-0.4-2.714-1.149-3.77-2.177
		c-0.823-0.791-1.297-1.877-1.319-3.018c0-1.28,0.885-3.03,2.655-5.248c1.983-2.427,4.25-4.608,6.752-6.496l-2.726-2.177
		c-3.575-2.82-5.363-4.764-5.363-5.832c0.157-1.439,0.778-2.787,1.77-3.841c1.343-1.639,2.935-3.057,4.717-4.204
		c2.092-1.371,4.361-2.452,6.744-3.212l1.451,4.044c-1.39,0.459-2.733,1.052-4.009,1.77c-1.432,0.793-2.788,1.714-4.053,2.752
		c-1.28,1.044-1.92,1.732-1.92,2.062c0,0.501,1.59,2.038,4.77,4.611l4.151,3.398c-4.236,4.301-6.735,6.894-7.496,7.779
		c-0.657,0.725-1.25,1.507-1.77,2.336c-0.349,0.528-0.553,1.138-0.593,1.77c0,0.69,0.56,1.28,1.681,1.77
		c1.338,0.524,2.768,0.771,4.204,0.726c2.767,0.102,5.53-0.276,8.168-1.115v3.912C264.857,90.019,261.966,90.416,259.069,90.338z"/>
	<path d="M285.282,90.338c-4.301,0-7.431-1.18-9.39-3.54c-1.959-2.36-2.935-5.95-2.929-10.77c-0.022-3.81,0.555-7.599,1.708-11.23
		c0.875-3.068,2.43-5.899,4.549-8.283c2.75-3.433,7.763-3.987,11.196-1.237c0.483,0.387,0.919,0.829,1.3,1.317
		c2.084,2.423,3.597,5.285,4.425,8.372c1.085,3.587,1.631,7.315,1.62,11.062c0.098,2.786-0.35,5.564-1.319,8.177
		c-0.752,1.946-2.14,3.58-3.938,4.637C290.262,89.947,287.777,90.462,285.282,90.338z M285.388,86.267
		c2.661,0,4.575-0.867,5.744-2.602c1.168-1.735,1.758-4.322,1.77-7.761c0.025-3.171-0.323-6.335-1.035-9.425
		c-0.464-2.363-1.394-4.61-2.735-6.611c-1.133-1.51-2.389-2.266-3.77-2.266c-1.28,0-2.481,0.799-3.602,2.398
		c-1.325,2.081-2.263,4.383-2.77,6.797c-0.732,2.983-1.098,6.044-1.089,9.115c0,3.44,0.59,6.027,1.77,7.761
		c1.18,1.735,3.074,2.599,5.682,2.593H285.388z"/>
	<path d="M317.69,58.381h-16.461V54.08h21.187v35.78h-4.717L317.69,58.381z"/>
	<path d="M328.788,54.036h4.876l6.434,24.319c0.726,2.696,1.263,5.03,1.611,7c0.405-2.364,0.951-4.702,1.637-7l6.434-24.319h4.929
		l-10.062,35.78h-5.885L328.788,54.036z"/>
	<path d="M366.771,54.036h5.885l10.045,35.78h-4.929l-6.416-24.355c-0.701-2.294-1.248-4.633-1.637-7
		c-0.348,2.006-0.885,4.339-1.611,7l-6.434,24.319h-4.876L366.771,54.036z"/>
	<path d="M403.48,75.532h-6.018c-3.853,0-6.835-0.973-8.947-2.92c-2.112-1.947-3.165-4.705-3.159-8.275
		c-0.143-2.904,0.883-5.744,2.85-7.885c2.01-2.014,4.777-3.087,7.62-2.956c4.236,0,7.313,1.375,9.23,4.124
		c1.917,2.749,2.879,7.133,2.885,13.151v19.054h-4.425L403.48,75.532z M403.427,71.382c0.065-2.677-0.196-5.351-0.779-7.965
		c-0.326-1.68-1.153-3.223-2.372-4.425c-1.257-0.987-2.83-1.481-4.425-1.389c-1.664-0.092-3.283,0.556-4.425,1.77
		c-1.145,1.392-1.72,3.166-1.611,4.965c0,4.667,2.516,7,7.549,7L403.427,71.382z"/>
</g>
<g>
	<path d="M109.472,178.031c-0.024-2.397,0.55-4.761,1.67-6.88c1.073-2.046,2.729-3.728,4.76-4.83c2.233-1.174,4.728-1.76,7.25-1.7
		c4.26,0,7.527,1.21,9.8,3.63s3.41,5.8,3.41,10.14c0.163,3.608-1.159,7.124-3.66,9.73c-2.453,2.473-5.827,3.71-10.12,3.71
		c-4.1,0-7.307-1.187-9.62-3.56C110.648,185.897,109.485,182.484,109.472,178.031z M114.302,178.591
		c-0.146,2.38,0.607,4.728,2.11,6.58c1.573,1.642,3.791,2.505,6.06,2.36c2.489,0.133,4.912-0.824,6.64-2.62
		c1.692-1.958,2.56-4.496,2.42-7.08c0.149-2.384-0.604-4.736-2.11-6.59c-1.557-1.627-3.753-2.484-6-2.34
		c-2.497-0.131-4.932,0.811-6.69,2.59c-1.704,1.956-2.576,4.5-2.43,7.09V178.591z"/>
	<path d="M154.702,182.651l1.73,4.57c-0.944,0.177-1.843,0.544-2.64,1.08c-0.542,0.42-0.847,1.075-0.82,1.76
		c-0.001,0.863,0.504,1.646,1.29,2c1.101,0.532,2.318,0.779,3.54,0.72c2.034,0.105,4.039-0.523,5.65-1.77
		c1.376-1.117,2.155-2.809,2.11-4.58c0.026-1.641-0.507-3.242-1.51-4.54c-1.823-2.016-3.908-3.779-6.2-5.24
		c-2.733-1.933-4.79-3.48-6.17-4.64c-1.148-0.903-2.13-1.999-2.9-3.24c-0.554-0.993-0.84-2.113-0.83-3.25
		c0.032-1.08,0.323-2.137,0.85-3.08c0.601-1.119,1.382-2.133,2.31-3l3.84,2.14c-0.526,0.532-0.998,1.115-1.41,1.74
		c-0.362,0.542-0.556,1.178-0.56,1.83c-0.011,0.699,0.161,1.388,0.5,2c0.597,0.866,1.342,1.621,2.2,2.23
		c1.133,0.9,2.95,2.19,5.45,3.87c2.12,1.341,4.097,2.896,5.9,4.64c1.128,1.14,2.007,2.502,2.58,4c0.529,1.54,0.783,3.162,0.75,4.79
		c-0.009,1.937-0.586,3.828-1.66,5.44c-1.114,1.654-2.675,2.958-4.5,3.76c-2.009,0.9-4.189,1.35-6.39,1.32
		c-3.107,0-5.52-0.667-7.24-2c-2.954-2.355-3.439-6.659-1.084-9.612c0.053-0.067,0.108-0.133,0.164-0.198
		C151.05,184.029,152.798,183.08,154.702,182.651z"/>
	<path d="M195.162,186.871c2.48,1.016,4.875,2.23,7.16,3.63c2.448,1.5,4.787,3.171,7,5l-2.75,3.25
		c-3.458-2.913-7.208-5.46-11.19-7.6c-3.633-1.907-8.74-3.59-15.32-5.05l0.85-4.28c1.531,0.487,3.1,0.849,4.69,1.08
		c1.535,0.201,3.082,0.298,4.63,0.29c3.693,0,6.463-0.497,8.31-1.49c1.738-0.819,2.826-2.59,2.77-4.51
		c0.084-1.381-0.532-2.711-1.64-3.54c-1.093-0.8-3.243-1.513-6.45-2.14c-2.538-0.382-4.979-1.248-7.19-2.55
		c-1.404-0.874-2.253-2.416-2.24-4.07c0-1.66,0.85-3.517,2.55-5.57l3.81,2.14c-0.8,0.721-1.276,1.734-1.32,2.81
		c-0.037,0.528,0.156,1.046,0.53,1.42c0.539,0.417,1.159,0.717,1.82,0.88c0.86,0.267,2.297,0.6,4.31,1
		c3.733,0.7,6.447,1.783,8.14,3.25c1.769,1.637,2.706,3.985,2.55,6.39c0.005,2.43-1.068,4.738-2.93,6.3
		C200.956,185.421,198.136,186.593,195.162,186.871z"/>
	<path d="M213.412,167.831l4.45-1.2c0.813,4.405,1.929,8.749,3.34,13c0.897,2.94,2.392,5.664,4.39,8
		c1.706,1.83,4.12,2.833,6.62,2.75c2.295,0.141,4.504-0.891,5.87-2.74c1.333-1.827,2-4.537,2-8.13c0.022-2.194-0.316-4.376-1-6.46
		c-0.533-1.744-1.476-3.335-2.75-4.64c-0.991-1.054-2.364-1.667-3.81-1.7c-0.89-0.055-1.768,0.227-2.46,0.79
		c-0.608,0.577-0.93,1.393-0.88,2.23c0.05,1.438,0.441,2.843,1.14,4.1l-4.75,1.29c-0.937-1.836-1.446-3.86-1.49-5.92
		c-0.085-1.908,0.743-3.742,2.23-4.94c1.605-1.221,3.585-1.847,5.6-1.77c2.434-0.045,4.817,0.703,6.79,2.13
		c2.059,1.554,3.642,3.653,4.57,6.06c1.127,2.805,1.685,5.807,1.64,8.83c0,4.9-1.06,8.693-3.18,11.38c-2.12,2.687-5.18,4.02-9.18,4
		c-2.313,0.059-4.608-0.413-6.71-1.38c-2.012-1.036-3.744-2.542-5.05-4.39c-1.763-2.544-3.141-5.334-4.09-8.28
		C215.27,176.596,214.17,172.246,213.412,167.831z"/>
	<path d="M270.782,177.381c2.399,0.809,4.569,2.181,6.33,4c1.271,1.53,1.94,3.472,1.88,5.46c0,3.473-1.167,6.08-3.5,7.82
		c-2.333,1.74-5.833,2.61-10.5,2.61c-4.393,0-7.83-0.937-10.31-2.81c-2.434-1.76-3.829-4.618-3.72-7.62
		c-0.024-1.929,0.692-3.793,2-5.21c1.722-1.738,3.809-3.07,6.11-3.9c-2.156-0.908-4.116-2.226-5.77-3.88
		c-1.14-1.353-1.735-3.082-1.67-4.85c0.009-1.609,0.543-3.171,1.52-4.45c1.163-1.499,2.711-2.654,4.48-3.34
		c2.224-0.889,4.605-1.318,7-1.26c4.453,0,7.857,0.81,10.21,2.43c3.548,2.253,4.598,6.956,2.345,10.504
		c-0.186,0.292-0.391,0.572-0.615,0.836C274.95,175.371,272.968,176.623,270.782,177.381z M264.952,179.721
		c-2.511,0.52-4.892,1.54-7,3c-1.383,1.018-2.2,2.633-2.2,4.35c-0.009,1.747,0.913,3.366,2.42,4.25
		c2.044,1.185,4.391,1.744,6.75,1.61c3.007,0,5.3-0.517,6.88-1.55c1.556-0.985,2.461-2.731,2.37-4.57
		c-0.083-1.758-1.015-3.365-2.5-4.31C269.66,181.098,267.367,180.149,264.952,179.721L264.952,179.721z M265.012,175.441
		c2.206-0.496,4.295-1.416,6.15-2.71c1.56-1.16,2.34-2.413,2.34-3.76c-0.022-1.523-0.934-2.892-2.33-3.5
		c-2.037-0.951-4.275-1.387-6.52-1.27c-2.034-0.072-4.053,0.383-5.86,1.32c-1.389,0.614-2.3,1.972-2.34,3.49
		c0.003,1.533,0.772,2.963,2.05,3.81c1.984,1.274,4.189,2.166,6.5,2.63L265.012,175.441z"/>
	<path d="M309.892,162.731c-0.758,0.969-1.176,2.16-1.19,3.39c-0.019,1.09,0.501,2.119,1.39,2.75c1.077,0.747,2.371,1.116,3.68,1.05
		h0.44c0.146,0.01,0.294,0.01,0.44,0l2,3.34c-2.948,1.463-5.672,3.339-8.09,5.57c-1.449,1.346-2.302,3.214-2.37,5.19
		c-0.07,1.312,0.495,2.578,1.52,3.4c1.318,0.888,2.895,1.31,4.48,1.2c0.725,0.017,1.451-0.023,2.17-0.12l2,5
		c-2.118,1.262-4.414,2.199-6.81,2.78c-2.615,0.662-5.302,0.998-8,1c-4.807,0-8.653-1.333-11.54-4
		c-2.887-2.667-4.333-6.293-4.34-10.88c0-4.3,1.747-8.3,5.24-12s9.05-7.333,16.67-10.9L309.892,162.731z M304.762,165.731
		c-4.053,1.935-7.683,4.654-10.68,8c-2.25,2.528-3.523,5.776-3.59,9.16c-0.173,2.821,0.968,5.563,3.09,7.43
		c2.378,1.831,5.333,2.75,8.33,2.59c1.286,0.008,2.571-0.055,3.85-0.19c1.43-0.19,2.844-0.487,4.23-0.89
		c-2.286-0.174-4.457-1.071-6.2-2.56c-1.458-1.412-2.241-3.382-2.15-5.41c0.006-2.028,0.654-4.002,1.85-5.64
		c1.647-2.136,3.65-3.973,5.92-5.43c-1.363-0.357-2.571-1.151-3.44-2.26c-0.835-1.07-1.283-2.392-1.27-3.75
		c-0.007-0.344,0.013-0.689,0.06-1.03V165.731z"/>
	<path d="M336.902,174.011c0,1.56,0.22,2.54,0.66,2.94c0.416,0.392,0.968,0.607,1.54,0.6c1.264-0.023,2.444-0.642,3.18-1.67
		c1.091-1.5,1.944-3.16,2.53-4.92l3.31-0.82c1.176,1.626,2.078,3.433,2.67,5.35c0.626,1.837,0.963,3.76,1,5.7
		c0,4.26-1.11,7.613-3.33,10.06c-2.22,2.447-5.36,3.673-9.42,3.68c-3.155,0.086-6.244-0.905-8.76-2.81
		c-2.715-2.26-4.866-5.123-6.28-8.36c-1.992-4.369-3.501-8.943-4.5-13.64l4.48-1.35c1.56,7.333,3.48,12.777,5.76,16.33
		c2.28,3.553,5.28,5.317,9,5.29c2.349,0.145,4.642-0.751,6.27-2.45c1.487-1.633,2.23-3.943,2.23-6.93
		c-0.003-1.601-0.291-3.189-0.85-4.69c-0.814,1.62-1.987,3.032-3.43,4.13c-1.253,0.908-2.763,1.392-4.31,1.38
		c-1.271,0.042-2.524-0.307-3.59-1c-0.973-0.656-1.712-1.606-2.11-2.71c-0.483-1.583-0.696-3.236-0.63-4.89v-3
		c0.06-0.867-0.07-1.738-0.38-2.55c-0.272-0.482-0.72-0.84-1.25-1c-0.811-0.243-1.653-0.368-2.5-0.37l0.53-4.6
		c2.753,0.08,4.81,0.613,6.17,1.6c1.36,0.987,2.027,2.907,2,5.76L336.902,174.011z"/>
	<path d="M376.702,181.311c-2.225,0.708-4.545,1.073-6.88,1.08c-3.827,0-6.76-0.843-8.8-2.53c-2.094-1.808-3.225-4.489-3.06-7.25
		c0.002-2.216,0.649-4.384,1.86-6.24c2.603-3.958,6.994-6.372,11.73-6.45c1.945-0.083,3.878,0.341,5.61,1.23
		c1.342,0.725,2.438,1.831,3.15,3.18c0.758,1.779,1.1,3.708,1,5.64v18.72c-0.06,0.867,0.07,1.738,0.38,2.55
		c0.272,0.482,0.72,0.84,1.25,1c0.811,0.243,1.653,0.368,2.5,0.37l-0.53,4.6c-2.807-0.06-4.877-0.58-6.21-1.56
		c-1.333-0.98-2-2.89-2-5.73V181.311z M376.702,176.481v-5.57c0.048-1.3-0.07-2.6-0.35-3.87c-0.244-0.811-0.755-1.516-1.45-2
		c-0.999-0.61-2.163-0.893-3.33-0.81c-1.481,0.017-2.93,0.428-4.2,1.19c-1.351,0.767-2.489,1.86-3.31,3.18
		c-0.819,1.288-1.253,2.783-1.25,4.31c-0.087,1.476,0.574,2.897,1.76,3.78c1.532,0.958,3.327,1.41,5.13,1.29
		c2.417,0.024,4.808-0.491,7-1.51V176.481z"/>
	<path d="M399.272,175.921c1.034-0.382,2.097-0.676,3.18-0.88c0.961-0.197,1.939-0.304,2.92-0.32c0.885-0.013,1.769,0.058,2.64,0.21
		c1.333,0.253,2.397,0.433,3.19,0.54c0.826,0.109,1.657,0.162,2.49,0.16c1.439,0.102,2.877-0.203,4.15-0.88
		c0.957-0.665,1.728-1.563,2.24-2.61l4.34,2.11c-1.467,3.653-4.357,5.48-8.67,5.48c-0.235-0.001-0.469-0.021-0.7-0.06
		c0.748,1.48,1.119,3.122,1.08,4.78c0.039,2.32-0.523,4.611-1.63,6.65c-1.052,1.92-2.635,3.496-4.56,4.54
		c-1.993,1.083-4.231,1.638-6.5,1.61c-1.581,0.037-3.149-0.306-4.57-1c-1.272-0.684-2.316-1.728-3-3
		c-0.877-1.834-1.276-3.86-1.16-5.89v-19c0.06-0.867-0.07-1.738-0.38-2.55c-0.272-0.482-0.72-0.84-1.25-1
		c-0.811-0.243-1.653-0.368-2.5-0.37l0.53-4.6c2.793,0.08,4.86,0.617,6.2,1.61c1.34,0.993,2.007,2.907,2,5.74L399.272,175.921z
		 M399.272,180.371v6.75c0,2.38,0.367,3.943,1.1,4.69c0.843,0.783,1.972,1.184,3.12,1.11c2.17,0.085,4.26-0.829,5.67-2.48
		c1.426-1.668,2.182-3.806,2.12-6c0.11-1.524-0.428-3.023-1.48-4.13c-1.134-0.994-2.615-1.5-4.12-1.41
		C403.462,178.91,401.273,179.412,399.272,180.371z"/>
	<path d="M442.132,192.851c3.653-0.487,6.427-1.45,8.32-2.89c2.999-2.281,3.731-6.489,1.68-9.65c-1-1.238-2.273-2.228-3.72-2.89
		c-2.322-1.098-4.739-1.985-7.22-2.65c-2.815-0.749-5.583-1.664-8.29-2.74c-1.696-0.636-3.249-1.601-4.57-2.84
		c-1.041-1.112-1.59-2.598-1.52-4.12c0.093-2.227,1.139-4.306,2.87-5.71l3.78,2.14c-0.872,0.704-1.456,1.704-1.64,2.81
		c-0.023,0.529,0.098,1.054,0.35,1.52c0.348,0.5,0.802,0.917,1.33,1.22c1.018,0.588,2.094,1.071,3.21,1.44
		c1.487,0.54,3.653,1.207,6.5,2c2.883,0.736,5.676,1.785,8.33,3.13c1.984,0.981,3.7,2.429,5,4.22c1.202,1.937,1.788,4.193,1.68,6.47
		c0.124,4.023-2.052,7.767-5.61,9.65c-3.74,2.2-9.073,3.3-16,3.3h-0.91l-1.35-4.07c1.622-0.504,3.109-1.369,4.35-2.53
		c0.927-0.951,1.438-2.232,1.42-3.56c0.063-1.234-0.407-2.436-1.29-3.3c-1.005-0.864-2.307-1.301-3.63-1.22
		c-1.054-0.073-2.104,0.189-3,0.75c-0.674,0.503-1.049,1.311-1,2.15c-0.005,0.926,0.237,1.838,0.7,2.64l-4.53,1
		c-0.629-1.362-0.969-2.84-1-4.34c-0.034-1.841,0.837-3.582,2.33-4.66c1.917-1.28,4.199-1.898,6.5-1.76
		c2.486-0.099,4.924,0.707,6.86,2.27c1.745,1.397,2.743,3.525,2.7,5.76c0.023,1.201-0.18,2.395-0.6,3.52
		C443.684,191.014,442.994,192.013,442.132,192.851z"/>
</g>
<g>
	<path d="M8.288,243.647c-0.048-2.611,0.605-5.187,1.89-7.46c1.241-2.157,3.077-3.911,5.29-5.05c2.384-1.221,5.032-1.836,7.71-1.79
		c4.473,0,8.087,1.303,10.84,3.91c2.799,2.713,4.303,6.495,4.13,10.39c0.052,2.631-0.593,5.229-1.87,7.53
		c-1.231,2.168-3.075,3.925-5.3,5.05c-2.406,1.208-5.068,1.816-7.76,1.77c-4.513,0-8.127-1.313-10.84-3.94
		C9.61,251.317,8.125,247.538,8.288,243.647z M13.558,243.737c-0.151,2.7,0.814,5.343,2.67,7.31c1.87,1.808,4.402,2.767,7,2.65
		c2.602,0.114,5.135-0.853,7-2.67c3.499-4.29,3.499-10.45,0-14.74c-1.897-1.822-4.463-2.777-7.09-2.64
		c-2.598-0.126-5.132,0.829-7,2.64c-1.713,1.76-2.57,4.243-2.57,7.45H13.558z"/>
	<path d="M90.438,260.607h-36.56c-1.611-0.064-3.223,0.074-4.8,0.41c-0.802,0.193-1.525,0.63-2.07,1.25
		c-0.441,0.572-0.674,1.278-0.66,2c-0.088,1.241,0.521,2.428,1.58,3.08c1.053,0.667,2.987,1,5.8,1h10.2v4.34h-10.4
		c-4.3,0-7.433-0.723-9.4-2.17c-1.919-1.299-3.049-3.483-3-5.8c-0.011-1.438,0.333-2.856,1-4.13c0.772-1.336,1.954-2.387,3.37-3
		c2.218-0.906,4.608-1.312,7-1.19h8.32v-14.1c-0.07-2.394,0.24-4.784,0.92-7.08c0.576-1.759,1.555-3.358,2.86-4.67
		c1.318-1.325,2.908-2.349,4.66-3c1.973-0.701,4.056-1.04,6.15-1c2.93-0.102,5.837,0.552,8.44,1.9c2.165,1.155,3.914,2.959,5,5.16
		c1.165,2.737,1.705,5.698,1.58,8.67L90.438,260.607z M85.248,244.257c0.075-2.547-0.211-5.093-0.85-7.56
		c-0.487-1.768-1.599-3.3-3.13-4.31c-1.716-1.047-3.702-1.565-5.71-1.49c-1.957-0.079-3.892,0.437-5.55,1.48
		c-1.469,1.002-2.554,2.472-3.08,4.17c-0.669,2.353-0.969,4.795-0.89,7.24v12.6h19.22L85.248,244.257z"/>
	<path d="M120.348,257.357c2.152-1.751,3.933-3.913,5.24-6.36c0.971-2.07,1.463-4.333,1.44-6.62c0-4.1-1.123-7.37-3.37-9.81
		c-2.388-2.501-5.747-3.837-9.2-3.66c-2.308-0.045-4.585,0.535-6.59,1.68c-1.912,1.12-3.447,2.784-4.41,4.78
		c-1.044,2.138-1.571,4.491-1.54,6.87c-0.057,2.654,0.57,5.278,1.82,7.62c1.309,2.288,3.199,4.189,5.48,5.51l-3,3.78
		c-2.983-1.658-5.451-4.108-7.13-7.08c-1.713-3.072-2.586-6.543-2.53-10.06c-0.054-3.186,0.718-6.331,2.24-9.13
		c1.449-2.644,3.658-4.793,6.34-6.17c2.952-1.476,6.22-2.211,9.52-2.14c3.266-0.08,6.5,0.645,9.42,2.11
		c2.609,1.351,4.743,3.465,6.12,6.06c2.421,4.853,2.782,10.478,1,15.6c-0.863,2.197-2.101,4.227-3.66,6h17.17v4.22h-22.22
		L120.348,257.357z"/>
	<path d="M173.058,231.927c1.138-1.704,2.672-3.108,4.47-4.09c1.871-0.892,3.928-1.327,6-1.27c2.692-0.056,5.342,0.67,7.63,2.09
		c2.229,1.434,3.993,3.483,5.08,5.9c1.222,2.675,1.833,5.589,1.79,8.53c0.031,2.325-0.306,4.641-1,6.86
		c-0.821,2.357-2.069,4.544-3.68,6.45h16.41v4.22h-21.38l-2.17-3.25c2.207-1.95,3.991-4.333,5.24-7
		c0.93-2.313,1.395-4.787,1.37-7.28c0.127-3.132-0.791-6.217-2.61-8.77c-1.516-2.186-4.02-3.475-6.68-3.44
		c-1.337-0.048-2.665,0.23-3.87,0.81c-1.016,0.539-1.867,1.344-2.46,2.33c-0.649,1.078-1.065,2.281-1.22,3.53
		c-0.214,1.852-0.308,3.716-0.28,5.58v17.49h-5.19v-17.5c0.027-1.78-0.06-3.561-0.26-5.33c-0.155-1.224-0.538-2.408-1.13-3.49
		c-0.571-1.031-1.41-1.889-2.43-2.48c-1.177-0.647-2.507-0.965-3.85-0.92c-2.682-0.017-5.203,1.279-6.75,3.47
		c-1.856,2.53-2.801,5.614-2.68,8.75c-0.051,2.878,0.583,5.726,1.85,8.31c1.214,2.41,3.055,4.449,5.33,5.9l-3.43,3.78
		c-2.864-2.146-5.214-4.903-6.88-8.07c-1.474-3.096-2.207-6.492-2.14-9.92c-0.054-2.993,0.59-5.958,1.88-8.66
		c1.151-2.418,2.982-4.448,5.27-5.84c2.357-1.391,5.054-2.101,7.79-2.05c2.001-0.048,3.983,0.398,5.77,1.3
		C170.582,228.829,172.033,230.229,173.058,231.927z"/>
	<path d="M256.408,216.817c1.274,1.817,1.939,3.991,1.9,6.21c0.03,2.021-0.718,3.976-2.09,5.46c-1.393,1.553-3.987,3.327-7.78,5.32
		c1.549,1.818,2.756,3.901,3.56,6.15c0.806,2.307,1.208,4.736,1.19,7.18c0,4.513-1.127,8.01-3.38,10.49
		c-2.253,2.48-5.45,3.72-9.59,3.72c-3.747,0-6.71-1.07-8.89-3.21c-2.224-2.248-3.409-5.321-3.27-8.48
		c-0.042-3.17,0.967-6.265,2.87-8.8c1.913-2.567,5.193-5.17,9.84-7.81c-1.198-0.727-2.495-1.276-3.85-1.63
		c-1.441-0.369-2.923-0.55-4.41-0.54c-4.373,0-7.807,1.227-10.3,3.68c-2.544,2.575-3.9,6.094-3.74,9.71
		c-0.057,2.654,0.57,5.278,1.82,7.62c1.309,2.288,3.199,4.189,5.48,5.51l-3,3.78c-2.983-1.658-5.451-4.108-7.13-7.08
		c-1.713-3.072-2.586-6.543-2.53-10.06c-0.062-3.219,0.758-6.393,2.37-9.18c1.579-2.661,3.915-4.792,6.71-6.12
		c3.182-1.478,6.662-2.203,10.17-2.12c2.328-0.028,4.646,0.309,6.87,1c2.102,0.663,4.077,1.678,5.84,3
		c2.263-1.091,4.396-2.433,6.36-4c0.981-0.822,1.558-2.03,1.58-3.31c-0.063-1.542-0.582-3.032-1.49-4.28L256.408,216.817z
		 M244.218,236.057c-3.967,2.327-6.773,4.503-8.42,6.53c-1.626,1.968-2.504,4.447-2.48,7c-0.137,2.021,0.527,4.015,1.85,5.55
		c1.364,1.333,3.226,2.03,5.13,1.92c5.04,0,7.56-3.333,7.56-10c0.005-2.037-0.312-4.062-0.94-6
		C246.332,239.238,245.417,237.544,244.218,236.057z"/>
	<path d="M309.988,261.317l-4.63-2.46c2.486-4.371,3.715-9.344,3.55-14.37c0.089-4.165-0.737-8.299-2.42-12.11
		c-1.474-3.339-3.952-6.135-7.09-8c-3.43-1.915-7.314-2.865-11.24-2.75c-4.021-0.099-7.994,0.889-11.5,2.86
		c-3.269,1.921-5.88,4.787-7.49,8.22c-1.823,3.966-2.716,8.296-2.61,12.66c-0.081,3.874,0.599,7.727,2,11.34
		c1.161,3.043,3.218,5.662,5.9,7.51c2.799,1.787,6.071,2.69,9.39,2.59c4.04,0,7.147-0.863,9.32-2.59
		c2.191-1.776,3.399-4.494,3.25-7.31c0.101-2.488-0.833-4.906-2.58-6.68c-1.92-1.777-4.479-2.697-7.09-2.55h-0.76v-4.19h1.55
		c2.873,0,4.963-0.483,6.27-1.45c2.316-1.931,2.629-5.373,0.699-7.69c-0.166-0.199-0.346-0.386-0.539-0.56
		c-1.551-1.062-3.415-1.569-5.29-1.44c-3.333,0-5.853,1.04-7.56,3.12s-2.577,5.003-2.61,8.77c-0.141,5.151,1.695,10.16,5.13,14
		l-4.42,2.87c-3.783-4.786-5.875-10.69-5.95-16.79c0-5.04,1.373-9.013,4.12-11.92s6.52-4.363,11.32-4.37c3.867,0,6.867,0.853,9,2.56
		c2.11,1.63,3.308,4.175,3.22,6.84c0.073,1.794-0.47,3.558-1.54,5c-1.303,1.521-2.958,2.702-4.82,3.44c4.667,2.247,7,5.913,7,11
		c0,4.607-1.563,8.177-4.69,10.71s-7.483,3.797-13.07,3.79c-4.212,0.095-8.368-0.985-12-3.12c-3.479-2.137-6.232-5.274-7.9-9
		c-3.864-9.29-3.65-19.776,0.59-28.9c2.117-4.136,5.45-7.524,9.55-9.71c4.383-2.285,9.268-3.433,14.21-3.34
		c4.861-0.139,9.679,0.959,14,3.19c3.867,2.117,6.965,5.404,8.85,9.39c2.116,4.633,3.143,9.689,3,14.78
		C314.253,250.479,312.83,256.233,309.988,261.317z"/>
	<path d="M363.198,231.987c4.07-5.773,12.05-7.153,17.823-3.083c1.119,0.789,2.104,1.752,2.917,2.853
		c2.46,3.46,3.69,8.49,3.69,15.09c0,8.753-1.787,15.247-5.36,19.48c-3.573,4.233-9.003,6.353-16.29,6.36
		c-2.428,0.031-4.853-0.176-7.24-0.62l0.59-4.31c2.143,0.4,4.321,0.577,6.5,0.53c5.547,0,9.677-1.693,12.39-5.08
		s4.07-8.783,4.07-16.19c0-5.233-0.79-9.233-2.37-12c-1.238-2.541-3.824-4.146-6.65-4.13c-1.119-0.027-2.231,0.173-3.27,0.59
		c-0.943,0.419-1.758,1.081-2.36,1.92c-0.697,0.959-1.178,2.058-1.41,3.22c-0.338,2.146-0.475,4.319-0.41,6.49v17.49h-5.19v-19.11
		c0.091-2.146-0.162-4.294-0.75-6.36c-0.424-1.289-1.256-2.405-2.37-3.18c-1.278-0.785-2.762-1.169-4.26-1.1
		c-1.379-0.051-2.743,0.296-3.93,1c-1.151,0.765-2.035,1.87-2.53,3.16c-0.718,2.26-1.02,4.632-0.89,7v18.54h-5.19v-17.43
		c0.056-2.091-0.078-4.183-0.4-6.25c-0.223-1.187-0.697-2.312-1.39-3.3c-0.61-0.855-1.425-1.543-2.37-2
		c-0.98-0.453-2.05-0.679-3.13-0.66c-1.653-0.004-3.259,0.549-4.56,1.57c-1.454,1.15-2.567,2.675-3.22,4.41
		c-0.791,1.994-1.185,4.124-1.16,6.27c0,6.153,2.393,10.89,7.18,14.21l-3.43,3.81c-2.864-2.146-5.214-4.903-6.88-8.07
		c-1.476-3.105-2.209-6.512-2.14-9.95c-0.043-2.942,0.561-5.858,1.77-8.54c2.169-4.983,7.147-8.149,12.58-8
		c1.917-0.047,3.813,0.398,5.51,1.29c1.721,1.016,3.162,2.446,4.19,4.16c1.037-1.704,2.502-3.108,4.25-4.07
		c1.767-0.935,3.741-1.41,5.74-1.38c2.05-0.055,4.081,0.413,5.9,1.36C360.843,228.912,362.245,230.301,363.198,231.987z"/>
	<path d="M402.188,272.067l0.59-4.31c2.183,0.401,4.401,0.579,6.62,0.53c5.8,0,10.167-1.71,13.1-5.13s4.397-8.49,4.39-15.21
		c0-5.373-1.26-9.557-3.78-12.55c-2.52-2.993-6.037-4.493-10.55-4.5c-3.48-0.06-6.866,1.124-9.55,3.34
		c-2.731,2.249-4.571,5.397-5.19,8.88c2.116-1.418,4.603-2.183,7.15-2.2c5.022-0.386,9.406,3.373,9.791,8.395
		c0.036,0.471,0.036,0.944-0.001,1.415c0.148,2.84-0.85,5.621-2.77,7.72c-1.984,1.963-4.703,3-7.49,2.86
		c-3.314,0.09-6.483-1.361-8.58-3.93c-2.207-2.62-3.31-6.287-3.31-11c-0.065-3.591,0.796-7.138,2.5-10.3
		c1.654-2.978,4.138-5.41,7.15-7c3.211-1.708,6.803-2.575,10.44-2.52c6.267,0,11.087,1.893,14.46,5.68
		c3.373,3.787,5.057,9.07,5.05,15.85c0,7.833-1.953,13.887-5.86,18.16c-3.907,4.273-9.513,6.413-16.82,6.42
		C407.068,272.703,404.61,272.502,402.188,272.067z M397.498,247.807c-0.012,2.465,0.735,4.874,2.14,6.9
		c1.17,1.576,3.038,2.48,5,2.42c1.408,0.05,2.766-0.525,3.71-1.57c0.997-1.188,1.505-2.711,1.42-4.26
		c0.098-1.653-0.447-3.279-1.52-4.54c-1.065-1.114-2.561-1.712-4.1-1.64C401.678,245.177,399.315,246.133,397.498,247.807
		L397.498,247.807z"/>
	<path d="M460.958,257.357c2.152-1.75,3.934-3.913,5.24-6.36c0.972-2.07,1.464-4.333,1.44-6.62c0-4.1-1.123-7.37-3.37-9.81
		c-2.388-2.501-5.747-3.837-9.2-3.66c-2.308-0.045-4.585,0.535-6.59,1.68c-1.912,1.121-3.447,2.785-4.41,4.78
		c-1.044,2.138-1.571,4.491-1.54,6.87c-0.057,2.654,0.57,5.278,1.82,7.62c1.309,2.288,3.199,4.189,5.48,5.51l-3,3.78
		c-2.983-1.658-5.451-4.108-7.13-7.08c-1.713-3.072-2.586-6.543-2.53-10.06c-0.054-3.186,0.718-6.331,2.24-9.13
		c1.449-2.644,3.658-4.793,6.34-6.17c2.952-1.476,6.22-2.211,9.52-2.14c3.266-0.08,6.5,0.645,9.42,2.11
		c2.609,1.35,4.744,3.464,6.12,6.06c2.421,4.853,2.782,10.478,1,15.6c-0.863,2.197-2.101,4.228-3.66,6h14.68v-29h5.24v26.78
		c0,4.807-0.81,8.503-2.43,11.09c-1.6,2.571-3.984,4.559-6.8,5.67c-3.424,1.282-7.065,1.89-10.72,1.79
		c-2.242,0.031-4.482-0.177-6.68-0.62l0.59-4.31c1.937,0.398,3.913,0.576,5.89,0.53c3.27,0.145,6.525-0.514,9.48-1.92
		c2.306-1.198,4.032-3.274,4.79-5.76h-19.09L460.958,257.357z"/>
	<path d="M541.878,232.987c-1.21-0.724-2.516-1.273-3.88-1.63c-1.441-0.369-2.923-0.55-4.41-0.54c-2.354-0.125-4.693,0.431-6.74,1.6
		c-1.595,1.007-2.828,2.495-3.52,4.25c-0.822,2.583-1.178,5.292-1.05,8v16h-5.19v-17.55c0.027-1.78-0.06-3.561-0.26-5.33
		c-0.154-1.224-0.538-2.408-1.13-3.49c-0.57-1.032-1.41-1.889-2.43-2.48c-1.177-0.647-2.507-0.965-3.85-0.92
		c-2.682-0.017-5.203,1.279-6.75,3.47c-1.856,2.53-2.801,5.614-2.68,8.75c-0.051,2.878,0.583,5.726,1.85,8.31
		c1.214,2.41,3.055,4.449,5.33,5.9l-3.43,3.78c-2.864-2.146-5.214-4.903-6.88-8.07c-1.474-3.096-2.207-6.492-2.14-9.92
		c-0.054-2.993,0.59-5.958,1.88-8.66c1.151-2.418,2.982-4.448,5.27-5.84c2.357-1.391,5.054-2.101,7.79-2.05
		c4.324-0.166,8.369,2.126,10.45,5.92c1.373-1.944,3.246-3.482,5.42-4.45c2.471-1.047,5.137-1.555,7.82-1.49
		c2.371-0.034,4.733,0.304,7,1c2.113,0.659,4.098,1.673,5.87,3c2.263-1.091,4.396-2.433,6.36-4c0.981-0.822,1.558-2.03,1.58-3.31
		c-0.063-1.542-0.582-3.032-1.49-4.28l4.86-2.26c1.274,1.817,1.94,3.991,1.9,6.21c0.023,2.011-0.725,3.953-2.09,5.43
		c-1.393,1.553-3.987,3.327-7.78,5.32c1.549,1.818,2.756,3.901,3.56,6.15c0.806,2.307,1.208,4.736,1.19,7.18
		c0,4.513-1.127,8.01-3.38,10.49c-2.253,2.48-5.45,3.72-9.59,3.72c-3.747,0-6.71-1.07-8.89-3.21c-2.224-2.248-3.409-5.321-3.27-8.48
		c-0.042-3.176,0.967-6.277,2.87-8.82C533.934,238.187,537.211,235.62,541.878,232.987z M545.308,236.067
		c-3.967,2.327-6.773,4.503-8.42,6.53c-1.626,1.968-2.504,4.447-2.48,7c-0.138,2.021,0.527,4.015,1.85,5.55
		c1.364,1.333,3.226,2.03,5.13,1.92c5.04,0,7.56-3.333,7.56-10c0.005-2.037-0.312-4.062-0.94-6c-0.584-1.822-1.499-3.52-2.7-5.01
		V236.067z"/>
</g>
<g>
	<path d="M103.628,325.496c-2.235,0.012-4.459-0.325-6.59-1c-1.848-0.556-3.565-1.478-5.05-2.71c-1.395-1.198-2.503-2.695-3.24-4.38
		c-0.785-1.842-1.174-3.828-1.14-5.83c-0.038-2.022,0.351-4.028,1.14-5.89c0.734-1.686,1.846-3.182,3.25-4.37
		c1.492-1.236,3.215-2.161,5.07-2.72c2.125-0.648,4.338-0.965,6.56-0.94c2.248-0.028,4.488,0.289,6.64,0.94
		c1.858,0.558,3.586,1.483,5.08,2.72c1.404,1.188,2.516,2.684,3.25,4.37c0.789,1.862,1.178,3.868,1.14,5.89
		c0.034,2.002-0.355,3.988-1.14,5.83c-0.738,1.687-1.849,3.185-3.25,4.38c-1.493,1.247-3.22,2.182-5.08,2.75
		C108.118,325.198,105.878,325.522,103.628,325.496z M103.628,321.596c1.525,0.014,3.043-0.208,4.5-0.66
		c1.309-0.404,2.523-1.067,3.57-1.95c1.011-0.866,1.817-1.945,2.36-3.16c1.133-2.755,1.133-5.845,0-8.6
		c-0.541-1.205-1.347-2.272-2.36-3.12c-1.054-0.866-2.266-1.518-3.57-1.92c-1.457-0.452-2.975-0.674-4.5-0.66
		c-1.499-0.012-2.99,0.211-4.42,0.66c-1.3,0.403-2.509,1.055-3.56,1.92c-1.013,0.848-1.82,1.915-2.36,3.12
		c-1.133,2.755-1.133,5.845,0,8.6c0.543,1.215,1.349,2.294,2.36,3.16c1.045,0.881,2.255,1.544,3.56,1.95
		C100.638,321.385,102.13,321.608,103.628,321.596z"/>
	<path d="M159.588,313.166c0.017,1.345-0.124,2.688-0.42,4c-0.256,1.12-0.639,2.207-1.14,3.24c-0.455,0.931-1.016,1.807-1.67,2.61
		c-0.612,0.747-1.28,1.446-2,2.09l-3-3.11c1.06-1.029,1.904-2.26,2.48-3.62c0.331-0.775,0.592-1.578,0.78-2.4
		c0.195-0.86,0.292-1.739,0.29-2.62c0.027-1.682-0.286-3.352-0.92-4.91c-0.571-1.392-1.418-2.654-2.49-3.71
		c-1.043-1.012-2.277-1.808-3.63-2.34c-1.384-0.548-2.861-0.826-4.35-0.82c-1.489-0.009-2.969,0.245-4.37,0.75
		c-1.332,0.478-2.555,1.216-3.6,2.17c-1.053,0.972-1.891,2.154-2.46,3.47c-0.629,1.482-0.939,3.08-0.91,4.69
		c-0.024,1.36,0.189,2.713,0.63,4c0.363,1.057,0.919,2.037,1.64,2.89c0.641,0.748,1.436,1.348,2.33,1.76
		c0.836,0.391,1.747,0.595,2.67,0.6c0.847,0.013,1.689-0.136,2.48-0.44c0.701-0.272,1.335-0.692,1.86-1.23
		c0.515-0.536,0.919-1.168,1.19-1.86c0.287-0.743,0.429-1.534,0.42-2.33c-0.407,0.478-0.912,0.863-1.48,1.13
		c-0.623,0.303-1.308,0.457-2,0.45c-0.613,0.001-1.222-0.104-1.8-0.31c-0.565-0.199-1.082-0.512-1.52-0.92
		c-0.442-0.438-0.783-0.967-1-1.55c-0.268-0.702-0.397-1.449-0.38-2.2c-0.016-0.738,0.124-1.47,0.41-2.15
		c0.255-0.59,0.634-1.118,1.11-1.55c0.483-0.448,1.056-0.789,1.68-1c0.685-0.219,1.401-0.327,2.12-0.32
		c1.03-0.018,2.053,0.183,3,0.59c0.857,0.373,1.619,0.933,2.23,1.64c0.625,0.74,1.097,1.596,1.39,2.52
		c0.331,1.041,0.493,2.128,0.48,3.22c0.008,1.288-0.208,2.567-0.64,3.78c-0.416,1.165-1.07,2.231-1.92,3.13
		c-0.896,0.931-1.98,1.66-3.18,2.14c-1.397,0.55-2.889,0.819-4.39,0.79c-1.651,0.019-3.291-0.28-4.83-0.88
		c-1.434-0.564-2.725-1.438-3.78-2.56c-1.098-1.191-1.941-2.593-2.48-4.12c-0.62-1.77-0.921-3.635-0.89-5.51
		c-0.02-2.009,0.365-4.002,1.13-5.86c0.728-1.763,1.822-3.351,3.21-4.66c1.445-1.349,3.145-2.396,5-3.08
		c2.132-0.768,4.385-1.144,6.65-1.11c2.228-0.028,4.443,0.359,6.53,1.14c1.891,0.71,3.619,1.795,5.08,3.19
		c1.428,1.383,2.552,3.048,3.3,4.89C159.226,308.875,159.621,311.013,159.588,313.166z M140.278,312.606
		c-0.033,0.596,0.202,1.175,0.64,1.58c0.46,0.404,1.058,0.616,1.67,0.59c0.59,0.021,1.165-0.191,1.6-0.59
		c0.428-0.411,0.657-0.987,0.63-1.58c0.067-1.18-0.835-2.191-2.014-2.259c-0.072-0.004-0.144-0.005-0.216-0.001
		c-0.617-0.024-1.218,0.199-1.67,0.62C140.482,311.397,140.249,311.993,140.278,312.606L140.278,312.606z"/>
	<path d="M168.118,290.696h4.87v22.82c-0.013,1.132,0.071,2.262,0.25,3.38c0.121,0.83,0.432,1.621,0.91,2.31
		c0.463,0.614,1.101,1.074,1.83,1.32c0.969,0.311,1.983,0.453,3,0.42h9.08c1.017,0.033,2.031-0.109,3-0.42
		c0.729-0.246,1.366-0.706,1.83-1.32c0.478-0.689,0.789-1.48,0.91-2.31c0.179-1.118,0.262-2.248,0.25-3.38v-6.8
		c0-0.413-0.023-0.877-0.07-1.39c-0.048-0.515-0.145-1.024-0.29-1.52c-0.134-0.472-0.326-0.925-0.57-1.35
		c-0.21-0.376-0.541-0.668-0.94-0.83l-4.19,3.71l-4.25-3.78c-0.641,0.133-1.233,0.441-1.71,0.89c-0.423,0.403-0.763,0.886-1,1.42
		c-0.218,0.51-0.36,1.049-0.42,1.6c-0.055,0.471-0.085,0.945-0.09,1.42c0.407-0.466,0.908-0.841,1.47-1.1
		c0.623-0.303,1.308-0.457,2-0.45c0.612-0.003,1.22,0.095,1.8,0.29c0.566,0.191,1.084,0.501,1.52,0.91
		c0.442,0.438,0.783,0.967,1,1.55c0.269,0.712,0.398,1.469,0.38,2.23c0.016,0.737-0.124,1.47-0.41,2.15
		c-0.256,0.59-0.634,1.118-1.11,1.55c-0.483,0.448-1.056,0.789-1.68,1c-0.685,0.219-1.401,0.327-2.12,0.32
		c-1.014,0.019-2.02-0.193-2.94-0.62c-0.823-0.391-1.547-0.962-2.12-1.67c-0.586-0.739-1.024-1.585-1.29-2.49
		c-0.299-0.999-0.448-2.037-0.44-3.08c-0.001-1.105,0.147-2.205,0.44-3.27c0.284-1.047,0.744-2.037,1.36-2.93
		c0.622-0.899,1.406-1.675,2.31-2.29c0.987-0.657,2.101-1.1,3.27-1.3l4,3.6l4-3.6c1.307,0.117,2.573,0.516,3.71,1.17
		c0.871,0.528,1.604,1.254,2.14,2.12c0.509,0.843,0.849,1.777,1,2.75c0.138,1.014,0.198,2.037,0.18,3.06v7.76
		c0.014,1.423-0.137,2.842-0.45,4.23c-0.262,1.189-0.777,2.308-1.51,3.28c-0.728,0.928-1.682,1.654-2.77,2.11
		c-1.344,0.536-2.784,0.791-4.23,0.75h-12.95c-1.446,0.041-2.886-0.214-4.23-0.75c-1.088-0.456-2.042-1.182-2.77-2.11
		c-0.733-0.972-1.248-2.091-1.51-3.28c-0.313-1.388-0.464-2.807-0.45-4.23V290.696z M185.668,310.296
		c0.033-0.596-0.202-1.175-0.64-1.58c-0.461-0.403-1.058-0.614-1.67-0.59c-0.59-0.021-1.165,0.191-1.6,0.59
		c-0.429,0.411-0.659,0.987-0.63,1.58c-0.067,1.18,0.835,2.191,2.014,2.259c0.072,0.004,0.144,0.005,0.216,0.001
		c0.617,0.024,1.218-0.199,1.67-0.62c0.439-0.433,0.672-1.034,0.64-1.65L185.668,310.296z"/>
	<path d="M239.428,311.406c0.013,1.553-0.127,3.104-0.42,4.63c-0.254,1.307-0.642,2.584-1.16,3.81c-0.443,1.061-1.007,2.068-1.68,3
		c-0.588,0.811-1.258,1.558-2,2.23l-3-3.11c0.548-0.557,1.004-1.199,1.35-1.9c0.454-0.879,0.833-1.796,1.13-2.74
		c0.324-1.018,0.578-2.057,0.76-3.11c0.177-0.97,0.271-1.954,0.28-2.94c0.021-1.516-0.086-3.032-0.32-4.53
		c-0.157-1.039-0.464-2.049-0.91-3c-0.312-0.676-0.799-1.255-1.41-1.68c-0.542-0.351-1.174-0.536-1.82-0.53
		c-0.772-0.014-1.517,0.281-2.07,0.82c-0.626,0.623-1.11,1.373-1.42,2.2c-0.396,1.014-0.672,2.071-0.82,3.15
		c-0.177,1.219-0.264,2.449-0.26,3.68v1h-4.92v-1c0.004-1.231-0.083-2.461-0.26-3.68c-0.149-1.079-0.424-2.136-0.82-3.15
		c-0.31-0.827-0.794-1.577-1.42-2.2c-0.553-0.538-1.298-0.833-2.07-0.82c-0.646-0.006-1.278,0.179-1.82,0.53
		c-0.611,0.424-1.098,1.004-1.41,1.68c-0.447,0.951-0.753,1.961-0.91,3c-0.234,1.498-0.341,3.014-0.32,4.53
		c-0.043,1.932,0.182,3.86,0.67,5.73c0.32,1.32,0.974,2.536,1.9,3.53c-0.02-0.763,0.141-1.521,0.47-2.21
		c0.301-0.595,0.723-1.12,1.24-1.54c0.501-0.413,1.079-0.722,1.7-0.91c0.612-0.191,1.249-0.289,1.89-0.29
		c0.677-0.002,1.351,0.096,2,0.29c0.625,0.187,1.206,0.496,1.71,0.91c0.508,0.423,0.917,0.952,1.2,1.55
		c0.317,0.7,0.471,1.462,0.45,2.23c0.071,1.378-0.475,2.715-1.49,3.65c-1.309,0.988-2.935,1.461-4.57,1.33
		c-1.514,0.001-3.017-0.263-4.44-0.78c-1.444-0.523-2.747-1.372-3.81-2.48c-1.18-1.258-2.083-2.751-2.65-4.38
		c-0.714-2.087-1.052-4.285-1-6.49c-0.035-2.145,0.162-4.288,0.59-6.39c0.297-1.505,0.863-2.945,1.67-4.25
		c0.642-1.021,1.556-1.841,2.64-2.37c1.104-0.503,2.307-0.752,3.52-0.73c1.108-0.03,2.208,0.189,3.22,0.64
		c0.879,0.414,1.654,1.019,2.27,1.77c0.631,0.784,1.125,1.67,1.46,2.62c0.373,1.046,0.65,2.124,0.83,3.22
		c0.181-1.098,0.466-2.176,0.85-3.22c0.345-0.949,0.845-1.835,1.48-2.62c0.614-0.749,1.385-1.354,2.26-1.77
		c1.008-0.453,2.105-0.672,3.21-0.64c1.213-0.022,2.416,0.228,3.52,0.73c1.083,0.529,1.998,1.35,2.64,2.37
		c0.807,1.305,1.373,2.745,1.67,4.25C239.245,307.124,239.453,309.263,239.428,311.406z M221.878,320.546
		c0.033-0.596-0.202-1.175-0.64-1.58c-0.461-0.403-1.058-0.614-1.67-0.59c-0.59-0.021-1.165,0.191-1.6,0.59
		c-0.429,0.411-0.659,0.987-0.63,1.58c-0.067,1.18,0.835,2.191,2.014,2.259c0.072,0.004,0.144,0.005,0.216,0.001
		c0.617,0.024,1.218-0.199,1.67-0.62C221.675,321.755,221.907,321.159,221.878,320.546z"/>
	<path d="M278.268,324.906h-18.86c-1.929,0.045-3.851-0.246-5.68-0.86c-1.452-0.496-2.776-1.305-3.88-2.37
		c-1.005-1.001-1.768-2.219-2.23-3.56c-0.488-1.422-0.732-2.917-0.72-4.42c-0.035-1.837,0.284-3.664,0.94-5.38
		c0.631-1.562,1.609-2.961,2.86-4.09c1.429-1.265,3.062-2.28,4.83-3c2.22-0.915,4.52-1.625,6.87-2.12
		c1.877-0.395,3.712-0.967,5.48-1.71c1.286-0.537,2.496-1.24,3.6-2.09c0.822-0.617,1.503-1.401,2-2.3
		c0.379-0.709,0.584-1.497,0.6-2.3h5.07c0.002,1.271-0.304,2.523-0.89,3.65c-0.66,1.242-1.557,2.343-2.64,3.24
		c-1.303,1.088-2.746,1.996-4.29,2.7c-1.889,0.868-3.863,1.539-5.89,2c-2.086,0.477-4.137,1.095-6.14,1.85
		c-1.512,0.555-2.929,1.341-4.2,2.33c-1.051,0.83-1.882,1.904-2.42,3.13c-0.547,1.352-0.813,2.802-0.78,4.26
		c-0.011,0.976,0.159,1.946,0.5,2.86c0.335,0.876,0.886,1.653,1.6,2.26c0.838,0.69,1.813,1.195,2.86,1.48
		c1.384,0.38,2.815,0.559,4.25,0.53h7c-1.761-0.774-3.274-2.02-4.37-3.6c-0.944-1.415-1.446-3.079-1.44-4.78
		c-0.01-0.888,0.132-1.77,0.42-2.61c0.269-0.775,0.695-1.486,1.25-2.09c0.558-0.608,1.24-1.089,2-1.41
		c0.89-0.356,1.842-0.529,2.8-0.51c0.719-0.007,1.435,0.101,2.12,0.32c0.624,0.211,1.197,0.552,1.68,1
		c0.476,0.432,0.854,0.96,1.11,1.55c0.286,0.68,0.426,1.413,0.41,2.15c0.016,0.751-0.113,1.498-0.38,2.2
		c-0.217,0.583-0.558,1.112-1,1.55c-0.438,0.408-0.955,0.721-1.52,0.92c-0.578,0.206-1.187,0.311-1.8,0.31
		c-0.692,0.007-1.377-0.147-2-0.45c-0.568-0.267-1.073-0.652-1.48-1.13c0.315,0.874,0.845,1.654,1.54,2.27
		c0.852,0.787,1.804,1.459,2.83,2c1.19,0.635,2.444,1.145,3.74,1.52c1.39,0.413,2.817,0.687,4.26,0.82L278.268,324.906z
		 M271.028,310.906c0.029-0.613-0.203-1.209-0.64-1.64c-0.452-0.421-1.053-0.644-1.67-0.62c-1.181-0.052-2.18,0.864-2.231,2.044
		c-0.003,0.072-0.003,0.144,0.001,0.216c-0.029,0.593,0.201,1.169,0.63,1.58c0.435,0.399,1.01,0.611,1.6,0.59
		c0.612,0.024,1.209-0.187,1.67-0.59c0.415-0.405,0.634-0.971,0.6-1.55L271.028,310.906z"/>
	<path d="M318.118,324.906h-18.87c-1.929,0.045-3.851-0.246-5.68-0.86c-1.452-0.496-2.776-1.305-3.88-2.37
		c-1.005-1.001-1.767-2.219-2.23-3.56c-0.488-1.422-0.732-2.917-0.72-4.42c-0.015-1.496,0.194-2.986,0.62-4.42
		c0.394-1.293,1.021-2.503,1.85-3.57c0.876-1.106,1.927-2.062,3.11-2.83c1.384-0.896,2.867-1.627,4.42-2.18
		c-0.379-0.426-0.671-0.922-0.86-1.46c-0.214-0.62-0.319-1.274-0.31-1.93c-0.019-0.764,0.121-1.523,0.41-2.23
		c0.254-0.596,0.64-1.126,1.13-1.55c0.499-0.422,1.082-0.732,1.71-0.91c0.706-0.2,1.437-0.298,2.17-0.29
		c0.719-0.007,1.435,0.101,2.12,0.32c0.624,0.211,1.197,0.552,1.68,1c0.476,0.432,0.855,0.96,1.11,1.55
		c0.286,0.68,0.426,1.413,0.41,2.15v0.35c0.01,0.106,0.01,0.214,0,0.32c1.215-0.436,2.387-0.985,3.5-1.64
		c0.861-0.504,1.654-1.116,2.36-1.82c0.556-0.554,1.006-1.205,1.33-1.92c0.268-0.594,0.411-1.238,0.42-1.89h5.07
		c0.002,1.271-0.304,2.523-0.89,3.65c-0.66,1.242-1.557,2.343-2.64,3.24c-1.303,1.088-2.746,1.996-4.29,2.7
		c-1.889,0.868-3.863,1.539-5.89,2c-2.086,0.477-4.137,1.095-6.14,1.85c-1.512,0.555-2.929,1.341-4.2,2.33
		c-1.05,0.83-1.881,1.905-2.42,3.13c-0.547,1.352-0.813,2.802-0.78,4.26c-0.011,0.976,0.159,1.945,0.5,2.86
		c0.335,0.876,0.886,1.653,1.6,2.26c0.838,0.69,1.813,1.195,2.86,1.48c1.384,0.38,2.815,0.559,4.25,0.53h7
		c-1.761-0.774-3.274-2.02-4.37-3.6c-0.944-1.415-1.446-3.079-1.44-4.78c-0.01-0.888,0.132-1.77,0.42-2.61
		c0.269-0.775,0.695-1.486,1.25-2.09c0.558-0.608,1.24-1.089,2-1.41c0.89-0.356,1.842-0.529,2.8-0.51
		c0.719-0.007,1.435,0.101,2.12,0.32c0.624,0.211,1.197,0.552,1.68,1c0.476,0.432,0.855,0.96,1.11,1.55
		c0.286,0.68,0.426,1.413,0.41,2.15c0.017,0.751-0.112,1.498-0.38,2.2c-0.445,1.164-1.382,2.072-2.56,2.48
		c-0.578,0.206-1.187,0.311-1.8,0.31c-0.692,0.007-1.377-0.147-2-0.45c-0.568-0.267-1.073-0.652-1.48-1.13
		c0.316,0.873,0.845,1.654,1.54,2.27c0.852,0.787,1.804,1.459,2.83,2c1.19,0.635,2.444,1.145,3.74,1.52
		c1.39,0.413,2.817,0.687,4.26,0.82L318.118,324.906z M303.208,297.366c0.029-0.613-0.203-1.209-0.64-1.64
		c-0.452-0.421-1.053-0.644-1.67-0.62c-1.181-0.052-2.18,0.864-2.231,2.044c-0.003,0.072-0.003,0.144,0.001,0.216
		c-0.027,0.593,0.202,1.169,0.63,1.58c0.435,0.399,1.01,0.611,1.6,0.59c0.612,0.024,1.209-0.187,1.67-0.59
		c0.435-0.407,0.666-0.986,0.63-1.58H303.208z M310.888,310.926c0.029-0.613-0.203-1.209-0.64-1.64
		c-0.452-0.421-1.053-0.644-1.67-0.62c-1.181-0.052-2.18,0.864-2.231,2.044c-0.003,0.072-0.003,0.144,0.001,0.216
		c-0.027,0.593,0.202,1.169,0.63,1.58c0.435,0.399,1.01,0.611,1.6,0.59c0.612,0.024,1.209-0.187,1.67-0.59
		c0.432-0.404,0.663-0.979,0.63-1.57L310.888,310.926z"/>
	<path d="M331.648,290.786c0.309,0.747,0.573,1.511,0.79,2.29c0.273,0.94,0.537,1.907,0.79,2.9c0.253,0.993,0.483,1.947,0.69,2.86
		c0.207,0.907,0.357,1.633,0.45,2.18c0.373-0.213,0.857-0.463,1.45-0.75c0.672-0.314,1.363-0.585,2.07-0.81
		c0.838-0.268,1.693-0.479,2.56-0.63c0.971-0.17,1.955-0.254,2.94-0.25c1.928-0.007,3.841,0.332,5.65,1
		c1.681,0.609,3.222,1.551,4.53,2.77c1.293,1.232,2.315,2.721,3,4.37c0.754,1.815,1.128,3.765,1.1,5.73
		c0.034,1.909-0.284,3.807-0.94,5.6c-0.575,1.547-1.491,2.945-2.68,4.09c-1.202,1.128-2.63,1.987-4.19,2.52
		c-1.748,0.593-3.584,0.884-5.43,0.86c-1.751,0.024-3.495-0.222-5.17-0.73c-1.419-0.427-2.744-1.123-3.9-2.05
		c-1.049-0.861-1.89-1.948-2.46-3.18c-0.586-1.293-0.88-2.7-0.86-4.12c-0.014-1.082,0.148-2.16,0.48-3.19
		c0.29-0.904,0.763-1.738,1.39-2.45c0.615-0.68,1.378-1.211,2.23-1.55c0.955-0.376,1.974-0.559,3-0.54
		c0.719-0.007,1.435,0.101,2.12,0.32c0.624,0.211,1.197,0.552,1.68,1c0.476,0.432,0.855,0.96,1.11,1.55
		c0.286,0.68,0.426,1.413,0.41,2.15c0.017,0.751-0.112,1.498-0.38,2.2c-0.445,1.164-1.382,2.072-2.56,2.48
		c-0.578,0.206-1.187,0.311-1.8,0.31c-0.692,0.007-1.377-0.147-2-0.45c-0.568-0.267-1.073-0.652-1.48-1.13
		c-0.005,0.818,0.209,1.622,0.62,2.33c0.429,0.733,1.008,1.367,1.7,1.86c0.768,0.55,1.623,0.966,2.53,1.23
		c1.023,0.301,2.084,0.449,3.15,0.44c1.22,0.017,2.432-0.2,3.57-0.64c1.037-0.406,1.975-1.03,2.75-1.83
		c0.789-0.838,1.392-1.833,1.77-2.92c0.435-1.243,0.649-2.553,0.63-3.87c0.041-1.567-0.263-3.123-0.89-4.56
		c-0.548-1.212-1.353-2.291-2.36-3.16c-0.978-0.831-2.109-1.463-3.33-1.86c-1.232-0.41-2.522-0.62-3.82-0.62
		c-1.072-0.005-2.141,0.103-3.19,0.32c-0.958,0.197-1.899,0.474-2.81,0.83c-0.799,0.314-1.572,0.692-2.31,1.13
		c-0.618,0.363-1.206,0.775-1.76,1.23c-0.193-0.587-0.447-1.29-0.76-2.11c-0.313-0.82-0.647-1.703-1-2.65
		c-0.373-0.947-0.77-1.92-1.19-2.92c-0.42-1-0.837-1.963-1.25-2.89s-0.813-1.79-1.2-2.59c-0.387-0.8-0.753-1.5-1.1-2.1H331.648z
		 M341.378,312.646c0.029-0.613-0.203-1.209-0.64-1.64c-0.452-0.421-1.053-0.644-1.67-0.62c-1.181-0.052-2.18,0.864-2.231,2.044
		c-0.003,0.072-0.003,0.144,0.001,0.216c-0.027,0.593,0.202,1.169,0.63,1.58c0.435,0.399,1.01,0.611,1.6,0.59
		c0.612,0.024,1.209-0.187,1.67-0.59c0.45-0.414,0.685-1.011,0.64-1.62V312.646z"/>
	<path d="M375.738,309.056c0-1.033-0.04-2.007-0.12-2.92c-0.061-0.813-0.208-1.618-0.44-2.4c-0.166-0.6-0.455-1.159-0.85-1.64
		c-0.346-0.398-0.853-0.618-1.38-0.6c-0.583-0.026-1.156,0.163-1.61,0.53c-0.49,0.451-0.837,1.035-1,1.68
		c-0.256,0.981-0.407,1.987-0.45,3c-0.08,1.24-0.12,2.75-0.12,4.53c0,1.173,0,2.153,0,2.94c0.016,0.669,0.07,1.337,0.16,2
		c0.057,0.424,0.15,0.842,0.28,1.25c0.092,0.277,0.216,0.542,0.37,0.79c0.407-0.86,1.085-1.562,1.93-2
		c0.872-0.435,1.836-0.655,2.81-0.64c0.677-0.002,1.351,0.096,2,0.29c0.625,0.187,1.206,0.496,1.71,0.91
		c0.508,0.423,0.918,0.952,1.2,1.55c0.317,0.7,0.471,1.462,0.45,2.23c0.073,1.372-0.461,2.707-1.46,3.65
		c-1.219,0.969-2.757,1.444-4.31,1.33c-1.415,0.019-2.82-0.246-4.13-0.78c-1.246-0.532-2.327-1.389-3.13-2.48
		c-0.951-1.313-1.631-2.802-2-4.38c-0.497-2.127-0.729-4.306-0.69-6.49c-0.025-2.136,0.102-4.272,0.38-6.39
		c0.177-1.473,0.589-2.908,1.22-4.25c0.466-0.995,1.227-1.823,2.18-2.37c1.025-0.516,2.163-0.767,3.31-0.73
		c0.929-0.031,1.853,0.139,2.71,0.5c0.678,0.306,1.267,0.782,1.71,1.38c0.461,0.625,0.8,1.33,1,2.08
		c0.225,0.848,0.392,1.71,0.5,2.58c0.107-0.876,0.298-1.74,0.57-2.58c0.241-0.759,0.625-1.465,1.13-2.08
		c0.503-0.599,1.141-1.072,1.86-1.38c0.879-0.357,1.822-0.527,2.77-0.5c1.125-0.045,2.243,0.207,3.24,0.73
		c0.897,0.563,1.596,1.391,2,2.37c0.575,1.353,0.936,2.786,1.07,4.25c0.225,2.122,0.329,4.256,0.31,6.39v9.55
		c1.287,0.054,2.496-0.618,3.13-1.74c0.7-1.16,1.05-3.06,1.05-5.7v-22.82h4.89v23.85c0.014,1.421-0.127,2.839-0.42,4.23
		c-0.242,1.183-0.733,2.301-1.44,3.28c-0.699,0.928-1.63,1.656-2.7,2.11c-1.333,0.538-2.763,0.794-4.2,0.75h-4.86v-13.66
		c0-1.78-0.04-3.29-0.12-4.53c-0.045-1.011-0.185-2.016-0.42-3c-0.13-0.619-0.411-1.197-0.82-1.68
		c-0.35-0.355-0.832-0.547-1.33-0.53c-0.586-0.022-1.156,0.195-1.58,0.6c-0.456,0.462-0.798,1.023-1,1.64
		c-0.261,0.778-0.433,1.583-0.51,2.4c-0.102,0.97-0.152,1.945-0.15,2.92L375.738,309.056z M377.738,320.536
		c0.033-0.596-0.202-1.175-0.64-1.58c-0.461-0.403-1.058-0.614-1.67-0.59c-0.59-0.021-1.165,0.191-1.6,0.59
		c-0.428,0.411-0.657,0.987-0.63,1.58c-0.061,1.18,0.846,2.187,2.026,2.248c0.054,0.003,0.109,0.004,0.164,0.002
		c0.617,0.024,1.218-0.199,1.67-0.62c0.435-0.424,0.671-1.013,0.65-1.62L377.738,320.536z"/>
	<path d="M419.098,314.276c1.316,0.296,2.571,0.817,3.71,1.54c1.16,0.733,2.27,1.487,3.33,2.26c1.06,0.773,2.08,1.44,3.06,2
		c0.865,0.551,1.865,0.855,2.89,0.88c0.939,0.01,1.83-0.41,2.42-1.14c0.723-0.928,1.158-2.047,1.25-3.22
		c-0.407,0.478-0.912,0.863-1.48,1.13c-0.623,0.303-1.308,0.457-2,0.45c-0.613,0.001-1.222-0.104-1.8-0.31
		c-1.178-0.408-2.115-1.316-2.56-2.48c-0.268-0.702-0.397-1.449-0.38-2.2c-0.016-0.737,0.124-1.47,0.41-2.15
		c0.255-0.59,0.634-1.118,1.11-1.55c0.483-0.448,1.056-0.789,1.68-1c0.685-0.219,1.401-0.327,2.12-0.32
		c0.964-0.018,1.921,0.166,2.81,0.54c0.792,0.338,1.498,0.847,2.07,1.49c0.567,0.654,0.996,1.416,1.26,2.24
		c0.287,0.898,0.429,1.837,0.42,2.78c0.021,1.423-0.151,2.843-0.51,4.22c-0.287,1.117-0.779,2.172-1.45,3.11
		c-0.59,0.81-1.365,1.469-2.26,1.92c-0.901,0.445-1.895,0.671-2.9,0.66c-0.731,0.002-1.457-0.116-2.15-0.35
		c-0.696-0.234-1.366-0.539-2-0.91c-0.633-0.369-1.241-0.78-1.82-1.23l-1.64-1.29c-0.52-0.413-1.013-0.783-1.48-1.11
		c-0.404-0.296-0.848-0.532-1.32-0.7c-0.12,0.507-0.267,1.033-0.44,1.58s-0.36,1.08-0.56,1.6c-0.193,0.52-0.4,1-0.62,1.44
		c-0.22,0.44-0.417,0.807-0.59,1.1c-2.219,0.054-4.432-0.257-6.55-0.92c-1.614-0.512-3.095-1.372-4.34-2.52
		c-1.081-1.029-1.9-2.301-2.39-3.71c-0.493-1.442-0.74-2.956-0.73-4.48c-0.035-1.837,0.284-3.664,0.94-5.38
		c0.631-1.562,1.609-2.961,2.86-4.09c1.429-1.265,3.062-2.279,4.83-3c2.22-0.915,4.52-1.625,6.87-2.12
		c1.877-0.395,3.712-0.967,5.48-1.71c1.286-0.537,2.496-1.24,3.6-2.09c0.822-0.617,1.503-1.401,2-2.3
		c0.379-0.708,0.585-1.497,0.6-2.3h5.07c0.002,1.271-0.304,2.523-0.89,3.65c-0.66,1.242-1.557,2.343-2.64,3.24
		c-1.303,1.088-2.746,1.996-4.29,2.7c-1.889,0.868-3.863,1.539-5.89,2c-2.086,0.477-4.137,1.095-6.14,1.85
		c-1.512,0.555-2.929,1.341-4.2,2.33c-1.05,0.83-1.881,1.905-2.42,3.13c-0.547,1.352-0.813,2.802-0.78,4.26
		c-0.012,0.969,0.168,1.931,0.53,2.83c0.331,0.815,0.82,1.556,1.44,2.18c0.609,0.61,1.328,1.099,2.12,1.44
		c0.819,0.355,1.698,0.555,2.59,0.59c0.256-0.418,0.47-0.86,0.64-1.32c0.203-0.536,0.374-1.083,0.51-1.64
		c0.147-0.587,0.27-1.193,0.37-1.82C418.968,315.429,419.045,314.836,419.098,314.276z M435.148,313.226
		c0.033-0.596-0.202-1.175-0.64-1.58c-0.461-0.403-1.058-0.614-1.67-0.59c-0.59-0.021-1.165,0.191-1.6,0.59
		c-0.428,0.411-0.657,0.987-0.63,1.58c-0.067,1.18,0.835,2.191,2.014,2.259c0.072,0.004,0.144,0.005,0.216,0.001
		c0.617,0.024,1.218-0.199,1.67-0.62c0.443-0.432,0.68-1.032,0.65-1.65L435.148,313.226z"/>
	<path d="M471.658,301.296c0.502-0.545,0.954-1.134,1.35-1.76c0.439-0.704,0.798-1.456,1.07-2.24c0.324-0.942,0.559-1.913,0.7-2.9
		c0.177-1.229,0.26-2.469,0.25-3.71h5.07c0.018,1.784-0.197,3.562-0.64,5.29c-0.4,1.538-1.005,3.014-1.8,4.39
		c-0.756,1.299-1.689,2.486-2.77,3.53c-1.072,1.031-2.252,1.943-3.52,2.72c-0.28-0.442-0.587-0.866-0.92-1.27
		c-0.4-0.5-0.833-1.003-1.3-1.51c-0.467-0.507-0.94-0.987-1.42-1.44c-0.392-0.371-0.817-0.706-1.27-1
		c-0.283,0.403-0.586,0.79-0.91,1.16c-0.312,0.354-0.646,0.688-1,1c0.393,0.629,0.75,1.28,1.07,1.95c0.32,0.667,0.653,1.333,1,2
		l8.17,17.37h-5.51l-5.62-12.71c-0.72-1.64-1.403-3.12-2.05-4.44c-0.558-1.168-1.2-2.294-1.92-3.37
		c-0.53-0.814-1.189-1.537-1.95-2.14c-0.601-0.477-1.343-0.741-2.11-0.75c-1.548-0.053-2.98,0.814-3.65,2.21
		c-0.492,0.94-0.83,1.953-1,3c-0.234,1.498-0.341,3.014-0.32,4.53c-0.033,1.924,0.145,3.845,0.53,5.73
		c0.236,1.321,0.847,2.546,1.76,3.53c-0.02-0.763,0.141-1.521,0.47-2.21c0.295-0.593,0.71-1.117,1.22-1.54
		c0.501-0.413,1.079-0.722,1.7-0.91c0.612-0.191,1.249-0.289,1.89-0.29c0.677-0.002,1.351,0.096,2,0.29
		c0.648,0.201,1.247,0.535,1.76,0.98c0.508,0.423,0.918,0.952,1.2,1.55c0.317,0.7,0.471,1.462,0.45,2.23
		c0.066,1.395-0.518,2.743-1.58,3.65c-1.053,0.887-2.763,1.33-5.13,1.33c-1.37-0.007-2.727-0.272-4-0.78
		c-1.351-0.54-2.557-1.389-3.52-2.48c-1.111-1.279-1.955-2.769-2.48-4.38c-0.673-2.096-0.99-4.289-0.94-6.49
		c-0.045-2.153,0.2-4.303,0.73-6.39c0.387-1.532,1.066-2.975,2-4.25c0.777-1.037,1.811-1.854,3-2.37
		c1.192-0.493,2.47-0.741,3.76-0.73c1.322-0.029,2.634,0.238,3.84,0.78c1.094,0.516,2.086,1.224,2.93,2.09
		c0.313-0.233,0.647-0.497,1-0.79c0.695-0.59,1.316-1.262,1.85-2c0.253-0.35,0.455-0.734,0.6-1.14c0.693,0.277,1.362,0.612,2,1
		c0.598,0.381,1.169,0.802,1.71,1.26c0.482,0.406,0.943,0.836,1.38,1.29C471.104,300.522,471.395,300.899,471.658,301.296z
		 M460.498,320.546c0.033-0.596-0.202-1.175-0.64-1.58c-0.461-0.403-1.058-0.614-1.67-0.59c-0.59-0.021-1.165,0.191-1.6,0.59
		c-0.428,0.411-0.657,0.987-0.63,1.58c-0.056,1.181,0.855,2.183,2.036,2.24c0.065,0.003,0.13,0.003,0.194,0
		c0.617,0.024,1.218-0.199,1.67-0.62C460.289,321.74,460.522,321.152,460.498,320.546z"/>
</g>
<g>
	<path d="M154.063,18.764C154.063,6.106,158.481,0,165.43,0c6.9,0,11.318,6.155,11.318,18.764c0,12.658-4.418,18.963-11.318,18.963
		C158.481,37.727,154.063,31.422,154.063,18.764z M172.33,18.764c0-10.623-2.78-15.09-6.9-15.09c-4.17,0-6.949,4.468-6.949,15.09
		c0,10.722,2.78,15.339,6.949,15.339C169.55,34.103,172.33,29.486,172.33,18.764z"/>
	<path d="M188.411,37.081V6.155h-6.453V3.276c3.226-0.596,5.56-1.44,7.545-2.582h3.475v36.386H188.411z"/>
	<path d="M204.805,34.401c11.417-9.978,16.679-17.225,16.679-23.48c0-4.17-2.184-7.198-6.701-7.198c-2.978,0-5.56,1.837-7.545,4.219
		l-2.631-2.582C207.584,2.134,210.712,0,215.328,0c6.503,0,10.573,4.269,10.573,10.772c0,7.247-5.709,14.644-14.247,22.735
		c1.886-0.149,4.12-0.347,5.957-0.347h10.077v3.922h-22.884V34.401z"/>
	<path d="M231.548,32.762l2.283-2.978c2.134,2.234,4.915,4.17,9.034,4.17c4.319,0,7.396-2.581,7.396-6.751
		c0-4.369-2.929-7.297-11.318-7.297v-3.475c7.496,0,10.077-3.028,10.077-6.95c0-3.524-2.383-5.758-6.156-5.857
		c-2.929,0.099-5.51,1.588-7.545,3.624l-2.432-2.879C235.618,1.837,238.845,0,243.064,0c6.106,0,10.573,3.276,10.573,9.134
		c0,4.418-2.631,7.347-6.503,8.786v0.199c4.319,0.993,7.744,4.269,7.744,9.233c0,6.503-5.212,10.375-11.665,10.375
		C237.505,37.727,233.931,35.344,231.548,32.762z"/>
	<path d="M283.638,27.054h-4.815v10.027h-4.319V27.054h-15.835v-2.978l15.14-23.381h5.014V23.43h4.815V27.054z M274.504,23.43
		V12.261c0-1.787,0.199-4.716,0.298-6.602h-0.199c-0.894,1.787-1.886,3.574-2.929,5.361l-8.29,12.41H274.504z"/>
	<path d="M284.901,32.912l2.234-2.979c2.085,2.085,4.716,4.021,8.935,4.021c4.269,0,7.744-3.276,7.744-8.588
		c0-5.212-2.978-8.29-7.546-8.29c-2.432,0-3.971,0.745-6.056,2.134l-2.432-1.489l1.142-17.027h17.721v3.872h-13.75L292,15.09
		c1.589-0.893,3.227-1.439,5.411-1.439c6.056,0,10.971,3.574,10.971,11.566c0,7.992-5.758,12.509-11.914,12.509
		C290.808,37.727,287.333,35.344,284.901,32.912z"/>
	<path d="M332.31,6.553c-1.44-1.738-3.624-2.78-5.857-2.78c-4.964,0-9.184,3.823-9.382,15.14c2.234-2.73,5.411-4.418,8.29-4.418
		c6.155,0,10.077,3.822,10.077,11.417c0,7.049-4.765,11.814-10.425,11.814c-6.999,0-12.162-6.007-12.162-18.019
		C312.851,5.46,319.255,0,326.303,0c3.773,0,6.503,1.588,8.488,3.723L332.31,6.553z M331.168,25.912
		c0-4.915-2.134-8.042-6.553-8.042c-2.283,0-5.063,1.291-7.446,4.666c0.546,7.545,3.276,11.665,7.843,11.665
		C328.488,34.202,331.168,30.876,331.168,25.912z"/>
	<path d="M356.879,4.567h-17.622V0.695h22.785v2.73c-8.538,10.971-10.127,19.409-10.673,33.656h-4.716
		C347.249,23.281,349.781,14.495,356.879,4.567z"/>
	<path d="M364.442,28.047c0-4.865,3.376-8.24,6.701-10.027v-0.248c-2.68-1.837-4.914-4.567-4.914-8.389
		c0-5.56,4.269-9.233,9.978-9.233c6.205,0,9.978,3.971,9.978,9.581c0,3.822-2.68,7.099-4.865,8.786v0.248
		c3.177,1.837,6.156,4.567,6.156,9.531c0,5.311-4.567,9.432-11.417,9.432C369.356,37.727,364.442,33.656,364.442,28.047z
		 M383.156,28.196c0-4.865-4.468-6.701-9.63-8.786c-2.929,1.886-4.964,4.765-4.964,8.24c0,3.872,3.226,6.701,7.595,6.701
		C380.327,34.351,383.156,31.819,383.156,28.196z M382.312,9.978c0-3.574-2.284-6.503-6.205-6.503c-3.326,0-5.758,2.383-5.758,5.907
		c0,4.369,3.922,6.255,8.191,7.942C381.022,15.14,382.312,12.658,382.312,9.978z"/>
	<path d="M394.184,31.174c1.539,1.738,3.772,2.78,6.106,2.78c4.716,0,8.786-3.872,9.134-15.19c-2.184,2.73-5.312,4.517-8.389,4.517
		c-6.056,0-10.027-3.922-10.027-11.467C391.007,4.765,395.772,0,401.431,0c6.999,0,12.211,5.758,12.211,17.324
		c0,14.743-6.354,20.402-13.204,20.402c-3.922,0-6.702-1.588-8.737-3.723L394.184,31.174z M409.374,15.041
		c-0.496-7.496-3.276-11.467-7.942-11.467c-3.475,0-6.155,3.276-6.155,8.24c0,4.915,2.184,8.092,6.503,8.092
		C404.211,19.906,406.941,18.516,409.374,15.041z"/>
</g>
<g>
	<path d="M36.47,106.743h4.591v36.19H36.47V106.743z"/>
	<path d="M61.993,106.743h4.591v36.19h-4.591V106.743z"/>
	<path d="M76.458,106.743h4.591v36.19h-4.591V106.743z"/>
	<path d="M101.981,106.743h4.591v36.19h-4.591V106.743z"/>
	<path d="M116.446,106.743h4.591v36.19h-4.591V106.743z"/>
	<path d="M130.91,106.743h4.591v36.19h-4.591V106.743z"/>
	<path d="M156.434,106.743h4.591v36.19h-4.591V106.743z"/>
	<path d="M166.011,106.743h4.789l5.875,19.601c1.284,4.246,2.123,7.702,3.505,11.948h0.198c1.333-4.246,2.222-7.702,3.505-11.948
		l5.826-19.601h4.641l-11.504,36.19h-5.283L166.011,106.743z"/>
	<path d="M205.455,106.743h4.789l5.875,19.601c1.284,4.246,2.123,7.702,3.505,11.948h0.198c1.333-4.246,2.222-7.702,3.505-11.948
		l5.826-19.601h4.641l-11.504,36.19h-5.283L205.455,106.743z"/>
	<path d="M244.9,106.743h4.79l5.875,19.601c1.284,4.246,2.123,7.702,3.505,11.948h0.198c1.333-4.246,2.222-7.702,3.505-11.948
		l5.826-19.601h4.641l-11.504,36.19h-5.283L244.9,106.743z"/>
	<path d="M278.174,106.743h4.592v36.19h-4.592V106.743z"/>
	<path d="M298.81,106.743h4.789l5.875,19.601c1.284,4.246,2.123,7.702,3.506,11.948h0.197c1.333-4.246,2.222-7.702,3.506-11.948
		l5.825-19.601h4.641l-11.504,36.19h-5.282L298.81,106.743z"/>
	<path d="M332.084,106.743h4.592v36.19h-4.592V106.743z"/>
	<path d="M346.548,106.743h4.592v36.19h-4.592V106.743z"/>
	<path d="M367.184,106.743h4.789l5.875,19.601c1.284,4.246,2.123,7.702,3.505,11.948h0.198c1.333-4.246,2.222-7.702,3.506-11.948
		l5.825-19.601h4.641l-11.504,36.19h-5.282L367.184,106.743z"/>
	<path d="M400.458,106.743h4.592v36.19h-4.592V106.743z"/>
	<path d="M414.923,106.743h4.592v36.19h-4.592V106.743z"/>
	<path d="M429.388,106.743h4.592v36.19h-4.592V106.743z"/>
	<path d="M454.91,106.743h4.592v36.19h-4.592V106.743z"/>
	<path d="M475.843,124.221l-9.875-17.478h5.036l4.937,9.233c0.938,1.679,1.679,3.209,2.864,5.283h0.198
		c0.987-2.073,1.679-3.604,2.567-5.283l4.839-9.233h4.789l-9.875,17.725l10.566,18.465h-5.036l-5.332-9.776
		c-0.938-1.777-1.926-3.654-3.11-5.826h-0.198c-1.037,2.172-1.975,4.048-2.913,5.826l-5.234,9.776h-4.79L475.843,124.221z"/>
	<path d="M515.19,124.221l-9.875-17.478h5.036l4.937,9.233c0.938,1.679,1.679,3.209,2.864,5.283h0.198
		c0.987-2.073,1.679-3.604,2.567-5.283l4.839-9.233h4.789l-9.875,17.725l10.566,18.465h-5.036l-5.332-9.776
		c-0.938-1.777-1.926-3.654-3.11-5.826h-0.198c-1.037,2.172-1.975,4.048-2.913,5.826l-5.234,9.776h-4.79L515.19,124.221z"/>
</g>
<g>
	<path d="M25.846,343.628c14.27,0,25.846,11.577,25.846,25.846c0,14.27-11.576,25.846-25.846,25.846
		C11.576,395.32,0,383.744,0,369.474C0,355.204,11.576,343.628,25.846,343.628z M25.846,348.041
		c-11.863,0-21.433,9.571-21.433,21.433c0,11.863,9.57,21.433,21.433,21.433s21.433-9.57,21.433-21.433
		C47.279,357.611,37.708,348.041,25.846,348.041z"/>
	<path d="M109.281,366.608v4.642H57.245v-4.642H109.281z"/>
	<path d="M165.725,385.29v4.642h-50.488v-4.642H165.725z M160.911,351.536v4.527h-40.86v-4.527H160.911z"/>
	<path d="M222.397,387.182v4.298h-49.342v-4.298H222.397z M219.303,348.843v4.241h-42.981v-4.241H219.303z M214.833,367.41v4.298
		h-34.843v-4.298H214.833z"/>
	<path d="M278.268,348.27v45.044h-4.356v-3.839h-37.995v4.241h-4.241V348.27H278.268z M273.912,385.348v-32.952h-11.175v17.938
		c0,1.833,0.229,2.579,1.432,2.579h5.559c0.975,0,2.522-0.115,3.324-0.344c0.058,1.204,0.172,2.579,0.286,3.611
		c-0.687,0.286-2.12,0.286-3.438,0.286h-6.189c-4.011,0-4.986-1.776-4.986-6.247v-17.822h-7.908
		c-0.344,15.415-1.777,23.897-11.633,28.654c-0.459-1.031-1.662-2.521-2.579-3.324c8.711-4.069,9.742-11.347,10.029-25.33h-10.716
		v32.952H273.912z"/>
	<path d="M337.748,388.328v4.184h-50.603v-4.184h13.926c1.146-5.215,2.35-11.919,3.495-18.74h-10.659v-4.183h11.347
		c0.688-4.241,1.318-8.482,1.834-12.321h-16.333V348.9h42.867v4.184h-22.006c-0.574,3.839-1.204,8.138-1.892,12.321h14.442
		l0.745-0.229l3.267,0.344c-0.401,6.304-1.204,15.359-2.064,22.808H337.748z M309.094,369.588c-1.089,6.82-2.292,13.524-3.381,18.74
		h15.989c0.63-6.132,1.318-13.467,1.777-18.74H309.094z"/>
	<path d="M362.615,370.219c-3.61,9.513-9.17,18.855-14.786,24.872c-0.916-0.745-2.98-2.292-4.183-2.922
		c5.73-5.559,11.003-14.385,14.212-23.21L362.615,370.219z M394.707,361.106h-50.03v-4.355h22.579v-13.181h4.471v13.181h22.98
		V361.106z M380.609,369.073c5.444,7.45,11.634,17.479,14.156,23.897l-4.642,2.063c-2.292-6.304-8.252-16.619-13.639-24.241
		L380.609,369.073z"/>
	<path d="M440.491,388.328c1.949,0,4.642-0.172,5.961-0.515c0.172,1.261,0.401,3.094,0.63,4.126
		c-1.203,0.286-3.839,0.401-6.648,0.401h-13.869c-6.648,0-9.112-2.465-9.112-9.341v-15.301l-15.415,2.465l-0.63-4.184l16.046-2.579
		v-18.797h4.471v18.052l28.997-4.642l0.63,4.241l-29.628,4.757v16.276c0,3.668,1.146,5.043,4.412,5.043H440.491z"/>
	<path d="M477.909,348.212c-1.433,17.193-4.241,36.849-16.448,47.623c-0.745-0.86-2.407-2.293-3.438-2.981
		c11.748-10.086,14.212-28.883,15.301-44.986L477.909,348.212z M492.465,346.837c2.293,19.828,7.164,37.537,18.053,46.19
		c-1.204,0.63-3.152,1.948-4.126,2.922c-10.488-9.112-15.244-25.846-17.708-44.872h-5.387v-4.241H492.465z"/>
	<path d="M561.516,390.22c1.719,0,2.005-1.662,2.234-9.513c0.975,0.802,2.751,1.547,3.955,1.891
		c-0.401,8.94-1.49,11.691-5.846,11.691h-6.476c-4.642,0-5.846-1.49-5.846-6.591v-27.336h-12.722
		c-1.146,14.041-4.928,27.451-17.822,35.359c-0.688-1.031-2.178-2.521-3.381-3.324c12.264-6.991,15.702-19.141,16.676-32.035
		h-14.957v-4.184h15.244c0.172-4.241,0.172-8.539,0.172-12.665h4.585c0,4.126-0.058,8.424-0.287,12.665h16.849v31.519
		c0,2.12,0.287,2.522,2.006,2.522H561.516z"/>
</g>
</svg>
