<?xml version="1.0" encoding="UTF-8" standalone="no"?>
<!-- Generator: Adobe Illustrator 16.0.0, SVG Export Plug-In . SVG Version: 6.00 Build 0)  -->

<svg
   version="1.1"
   id="contar"
   x="0px"
   y="0px"
   width="400"
   height="400"
   viewBox="0 0 399.99999 399.99999"
   xml:space="preserve"
   sodipodi:docname="contar.svg"
   inkscape:version="1.1.1 (3bf5ae0d25, 2021-09-20)"
   xmlns:inkscape="http://www.inkscape.org/namespaces/inkscape"
   xmlns:sodipodi="http://sodipodi.sourceforge.net/DTD/sodipodi-0.dtd"
   xmlns="http://www.w3.org/2000/svg"
   xmlns:svg="http://www.w3.org/2000/svg"><defs
     id="defs3086" /><sodipodi:namedview
     id="namedview3084"
     pagecolor="#ffffff"
     bordercolor="#666666"
     borderopacity="1.0"
     inkscape:pageshadow="2"
     inkscape:pageopacity="0.0"
     inkscape:pagecheckerboard="0"
     showgrid="false"
     inkscape:zoom="1"
     inkscape:cx="542.5"
     inkscape:cy="270.5"
     inkscape:window-width="1366"
     inkscape:window-height="745"
     inkscape:window-x="-8"
     inkscape:window-y="-8"
     inkscape:window-maximized="1"
     inkscape:current-layer="Capa_1"
     width="144.326px"
     height="179.326px" /><path
     id="corpo"
     style="fill:#000000;fill-opacity:1;stroke:none;stroke-width:2.84362;stroke-opacity:1"
     d="m 194.77378,30.331622 c 0,0 -31.46017,1.810936 -27.081,37.22248 0,0 0.58907,2.153817 -2.03274,2.082727 -3.23035,-0.08531 -3.53222,7.785551 3.45455,13.162827 0,0 1.62823,9.113964 5.85384,12.551895 0,0 2.90738,14.040839 -2.18269,21.365989 0,0 -3.33259,7.76387 -27.37535,11.34114 0,0 -23.81435,0.23514 -27.05322,32.50164 l -0.44987,47.30287 c 0,0 -1.73141,28.01747 -11.15231,43.03745 0,0 -5.46138,9.64345 -6.09267,31.84072 0,0 -1.600197,18.81842 -3.704472,24.67058 -1.28247,3.43793 -5.74979,9.25059 -9.24175,13.61269 -6.847425,8.51095 -18.352869,26.27538 -12.196442,28.30288 0,0 4.8006,0.46959 11.113426,-12.10203 0,0 -0.128446,4.81424 -5.192931,18.83895 -0.995265,2.59906 -5.231498,15.89353 1.627302,11.11342 0,0 3.174498,-2.1787 7.303428,-15.85648 0,0 -2.215487,23.03004 0.249925,24.18739 3.221816,1.5782 4.983925,-2.97661 6.437012,-23.13216 0,0 1.486145,-6.51111 2.177143,18.33356 0.03412,1.28247 1.912909,7.67008 4.537569,2.21603 2.21517,-4.57254 1.22186,-16.67476 1.22186,-20.74398 0,0 2.84247,15.70654 5.4984,15.70654 0,0 3.12638,3.66753 1.84391,-15.84536 -0.20759,-3.1877 0.9048,-9.73029 1.04414,-11.63551 l 0.30546,-7.48115 c 0,0 -0.7831,-8.57216 -0.7831,-12.1409 0,-0.88437 3.0679,-12.552 11.1523,-24.87055 0,0 16.81217,-29.82325 15.72875,-49.31339 0,0 -0.23366,-18.60035 6.53698,-29.13595 0,0 4.81104,52.68514 1.5551,67.47478 l 98.61571,0.006 c -3.30713,-14.7868 1.54397,-67.46922 1.54397,-67.46922 6.77064,10.5356 6.50923,29.1304 6.50923,29.1304 -1.07489,19.50436 15.7565,49.31896 15.7565,49.31896 8.08724,12.31854 11.15232,24.00321 11.15232,24.87051 0,3.54883 -0.77756,12.14093 -0.77756,12.14093 l 0.31101,7.48115 c 0.13936,1.90523 1.21205,8.46485 1.03859,11.63548 -1.26256,19.51289 1.83279,15.83982 1.83279,15.83982 2.61613,0 5.49285,-15.70097 5.49285,-15.70097 0,4.04931 -0.98981,16.17142 1.19409,20.74395 2.61328,5.45405 4.53679,-0.93353 4.57091,-2.21603 0.69097,-24.84464 2.18267,-18.33907 2.18267,-18.33907 1.45309,20.15554 3.24067,24.70749 6.44258,23.13213 2.42561,-1.15736 0.2056,-24.1874 0.2056,-24.1874 4.15452,13.68064 7.30342,15.86206 7.30342,15.86206 6.85596,4.81424 2.61877,-8.48581 1.66619,-11.11899 -5.07301,-13.99059 -5.23179,-18.83895 -5.23179,-18.83895 6.33841,12.57162 11.11896,12.10757 11.11896,12.10757 6.18202,-1.97347 -5.40316,-19.77484 -12.19089,-28.30284 -3.4635,-4.34505 -7.93392,-10.16328 -9.23064,-13.61828 -2.11277,-5.85216 -3.70446,-24.665 -3.70446,-24.665 -0.63981,-22.20012 -6.13154,-31.84073 -6.13154,-31.84073 -9.38393,-15.01998 -11.14677,-43.043 -11.14677,-43.043 l -0.41653,-47.30288 c -3.29006,-32.2665 -27.06434,-32.49608 -27.06434,-32.49608 -24.03139,-3.57727 -27.37534,-11.34114 -27.37534,-11.34114 -5.09007,-7.32515 -2.1827,-21.365987 -2.1827,-21.365987 4.22277,-3.435088 5.85384,-12.557451 5.85384,-12.557451 7.01235,-5.377276 6.66566,-13.242582 3.42678,-13.157274 -2.59906,0.06825 -2.01052,-2.08828 -2.01052,-2.08828 C 231.01611,32.139723 199.5725,30.331764 199.5725,30.331764 Z" /><path
     id="path8050"
     style="fill:#8c8c8c;fill-opacity:1;stroke:none;stroke-width:2.84362;stroke-opacity:1"
     d="m 112.31888,350.50644 c 0.0919,-2.99239 0.74827,-7.24055 0.98959,-9.3454" /><path
     id="path7449"
     style="fill:#8c8c8c;fill-opacity:1;stroke:none;stroke-width:2.84362;stroke-opacity:1"
     d="m 97.05502,352.3739 c 0,0 0,0 0,0 0,0 0.381821,-1.66792 0.848535,-0.0924" /><g
     id="g70296"
     transform="matrix(2.8436153,0,0,2.8436153,-2.838065,-14.972197)"><path
       id="um"
       style="fill:#8c8c8c;fill-opacity:1;stroke:none;stroke-opacity:1"
       d="m 31.123629,119.08881 c -2.397285,3.19613 -5.528773,8.37746 -3.568726,9.02296 0,0 1.689,0.164 3.909,-4.257" /><text
       xml:space="preserve"
       style="font-style:normal;font-weight:normal;font-size:5.33333px;line-height:1.25;font-family:sans-serif;fill:#000000;fill-opacity:1;stroke:none"
       x="21.022728"
       y="129.26137"
       id="text29195"><tspan
         sodipodi:role="line"
         id="tspan29193"
         x="21.022728"
         y="129.26137">1</tspan></text></g><text
     xml:space="preserve"
     style="font-style:normal;font-weight:normal;font-size:40px;line-height:1.25;font-family:sans-serif;fill:#000000;fill-opacity:1;stroke:none"
     x="27.840908"
     y="157.10226"
     id="text35629"><tspan
       sodipodi:role="line"
       id="tspan35627"
       x="27.840908"
       y="157.10226"></tspan></text><g
     id="g70301"
     transform="matrix(2.8436153,0,0,2.8436153,-2.838065,-14.972197)"><path
       id="dois"
       style="fill:#8c8c8c;fill-opacity:1;stroke:none;stroke-opacity:1"
       d="m 31.463903,123.85477 c 0,0 0,0 0,0 0,0 -0.046,1.693 -1.827,6.625 -0.35,0.914 -1.839,5.59 0.573,3.909 0,0 1.117,-0.767 2.569,-5.577" /><text
       xml:space="preserve"
       style="font-size:5.33333px;line-height:1.25;font-family:sans-serif"
       x="24.71591"
       y="138.06818"
       id="text39773"><tspan
         sodipodi:role="line"
         id="tspan39771"
         x="24.71591"
         y="138.06818">2</tspan></text></g><g
     id="g70306"
     transform="matrix(2.8436153,0,0,2.8436153,-2.838065,-14.972197)"><path
       id="tres"
       style="fill:#8c8c8c;fill-opacity:1;stroke:none;stroke-opacity:1"
       d="m 32.778903,128.81177 c 0,0 0,0 0,0 0,0 -0.779,8.099 0.088,8.506 1.133,0.555 1.751,-1.047 2.262,-8.135" /><text
       xml:space="preserve"
       style="font-size:5.33333px;line-height:1.25;font-family:sans-serif"
       x="30.113636"
       y="142.89774"
       id="text40257"><tspan
         sodipodi:role="line"
         id="tspan40255"
         x="30.113636"
         y="142.89774">3</tspan></text></g><g
     id="g70311"
     transform="matrix(2.8436153,0,0,2.8436153,-2.838065,-14.972197)"><path
       id="quatro"
       style="fill:#8c8c8c;fill-opacity:1;stroke:none;stroke-opacity:1"
       d="m 35.427303,129.15027 c 0.160101,0.54046 0.348609,2.16624 0.4686,6.4805 0.012,0.451 0.673,2.698 1.596,0.78 0.779,-1.608 0.429,-5.864 0.429,-7.295" /><text
       xml:space="preserve"
       style="font-size:5.33333px;line-height:1.25;font-family:sans-serif"
       x="36.363636"
       y="143.18182"
       id="text40743"><tspan
         sodipodi:role="line"
         id="tspan40741"
         x="36.363636"
         y="143.18182">4</tspan></text></g><g
     id="g70316"
     transform="matrix(2.8436153,0,0,2.8436153,-2.838065,-14.972197)"><path
       id="cinco"
       style="fill:#8c8c8c;fill-opacity:1;stroke:none;stroke-opacity:1"
       d="m 37.920903,129.11577 c 0,0 0,0 0,0 0,0 0.999,5.522 1.933,5.522 0,0 1.099,1.291 0.648,-5.571 -0.01036,-0.15914 -0.01133,-0.34206 -0.0052,-0.54072" /><text
       xml:space="preserve"
       style="font-size:5.33333px;line-height:1.25;font-family:sans-serif"
       x="41.477272"
       y="140.3409"
       id="text41297"><tspan
         sodipodi:role="line"
         id="tspan41295"
         x="41.477272"
         y="140.3409">5</tspan></text></g><g
     id="g70321"
     transform="matrix(2.8436153,0,0,2.8436153,-2.838065,-14.972197)"><path
       id="seis"
       style="fill:#8c8c8c;fill-opacity:1;stroke:none;stroke-opacity:1"
       d="m 43.073247,111.99036 -7.384766,-1.39453 c -0.178751,1.12588 -0.373433,2.16072 -0.59375,2.77344 -0.248796,0.66695 -0.864232,1.5911 -1.548828,2.54101 l 7.400391,6.05469 c -0.04899,-0.55334 -0.244141,-2.77851 -0.244141,-3.89062 0,-0.24554 0.689132,-2.86434 2.371094,-6.08399 z" /><text
       xml:space="preserve"
       style="font-size:5.33333px;line-height:1.25;font-family:sans-serif"
       x="28.125"
       y="114.77273"
       id="text41711"><tspan
         sodipodi:role="line"
         id="tspan41709"
         x="28.125"
         y="114.77273">6</tspan></text></g><g
     id="g70421"
     transform="matrix(2.8436153,0,0,2.8436153,-2.838065,-14.972197)"><path
       id="sete"
       style="fill:#8c8c8c;fill-opacity:1;stroke:none;stroke-opacity:1"
       d="M 47.600591,103.047 37.065434,98.324346 c -0.32095,1.665034 -0.593367,3.747944 -0.667969,6.371094 0,0 -0.287345,3.24467 -0.708984,5.90039 l 7.384766,1.39453 c 0.448435,-0.8584 0.952348,-1.75025 1.550781,-2.66211 0,0 1.524498,-2.71744 2.976563,-6.28125 z" /><text
       xml:space="preserve"
       style="font-size:5.33333px;line-height:1.25;font-family:sans-serif"
       x="30.113634"
       y="104.54546"
       id="text42347"><tspan
         sodipodi:role="line"
         id="tspan42345"
         x="30.113634"
         y="104.54546">7</tspan></text></g><g
     id="g70426"
     transform="matrix(2.8436153,0,0,2.8436153,-2.838065,-14.972197)"><path
       id="oito"
       style="fill:#8c8c8c;fill-opacity:1;stroke:none;stroke-opacity:1"
       d="m 50.266606,89.935674 -9.089844,-3.324218 c -0.590402,2.437396 -1.431257,4.964821 -2.636718,6.886718 0,0 -0.840474,1.536386 -1.47461,4.826172 L 47.600591,103.047 c 1.405244,-3.448896 2.742065,-7.6897 2.554687,-11.060544 0,0 0.02915,-0.899102 0.111328,-2.050782 z" /><text
       xml:space="preserve"
       style="font-size:5.33333px;line-height:1.25;font-family:sans-serif"
       x="33.238632"
       y="93.181816"
       id="text42967"><tspan
         sodipodi:role="line"
         id="tspan42965"
         x="33.238632"
         y="93.181816">8</tspan></text></g><g
     id="g70431"
     transform="matrix(2.8436153,0,0,2.8436153,-2.838065,-14.972197)"><path
       id="nove"
       style="fill:#8c8c8c;fill-opacity:1;stroke:none;stroke-opacity:1"
       d="m 50.266606,89.935674 c 0.158514,-2.221374 0.619457,-5.75533 2.1875,-8.195312 l -9.96875,-5.869141 -0.02344,2.492188 c 0,0 -0.25294,3.986684 -1.285157,8.248047 z" /><text
       xml:space="preserve"
       style="font-size:5.33333px;line-height:1.25;font-family:sans-serif"
       x="35.795448"
       y="81.818184"
       id="text44183"><tspan
         sodipodi:role="line"
         id="tspan44181"
         x="35.795448"
         y="81.818184">9</tspan></text></g><g
     id="g70436"
     transform="matrix(2.8436153,0,0,2.8436153,-2.838065,-14.972197)"><path
       id="dez"
       style="fill:#8c8c8c;fill-opacity:1;stroke:none;stroke-opacity:1"
       d="m 42.485356,75.871221 9.96875,5.869141 0.359375,-31.56836 c -0.239887,0.04012 -0.426948,0.08935 -0.679687,0.126954 0,0 -8.374672,0.08269 -9.513672,11.429687 z" /><text
       xml:space="preserve"
       style="font-size:5.33333px;line-height:1.25;font-family:sans-serif"
       x="33.23864"
       y="56.250004"
       id="text44913"><tspan
         sodipodi:role="line"
         id="tspan44911"
         x="33.23864"
         y="56.250004">10</tspan></text></g><g
     id="g70441"
     transform="matrix(2.8436153,0,0,2.8436153,-2.838065,-14.972197)"><path
       id="onze"
       style="fill:#8c8c8c;fill-opacity:1;stroke:none;stroke-opacity:1"
       d="m 56.940434,49.218877 9.633446,8.617797 3.690773,-14.518187 -7.548828,-2.986328 c 0.165632,1.660149 0.223979,4.281726 -0.955078,5.978515 0,0 -0.715527,1.594293 -4.820313,2.908203 z"
       sodipodi:nodetypes="cccccc" /><text
       xml:space="preserve"
       style="font-size:5.33333px;line-height:1.25;font-family:sans-serif"
       x="53.125004"
       y="43.749996"
       id="text47475"><tspan
         sodipodi:role="line"
         id="tspan47473"
         x="53.125004"
         y="43.749996">11</tspan></text></g><g
     id="g70446"
     transform="matrix(2.8436153,0,0,2.8436153,-2.838065,-14.972197)"><path
       id="doze"
       style="fill:#8c8c8c;fill-opacity:1;stroke:none;stroke-opacity:1"
       d="m 60.469731,34.380987 c 0,0 0.181797,0.02238 0.447266,0.01563 0.132734,-0.0034 0.287087,-0.01395 0.449218,-0.03711 0.162132,-0.02316 0.333119,-0.06024 0.5,-0.115234 0.166882,-0.05499 0.329578,-0.127673 0.476563,-0.226562 0.07349,-0.04944 0.143134,-0.105289 0.207031,-0.167969 0.0639,-0.06268 0.122608,-0.133515 0.173828,-0.210938 0.05122,-0.07742 0.0954,-0.162187 0.13086,-0.255859 0.03546,-0.09367 0.0615,-0.195211 0.07813,-0.306641 0.01662,-0.111429 0.02287,-0.232587 0.01758,-0.363281 -0.0053,-0.130694 -0.02244,-0.272362 -0.05274,-0.423828 -0.03029,-0.151467 -0.08845,-0.304916 -0.171874,-0.462891 -0.08342,-0.157975 -0.191093,-0.320069 -0.320313,-0.482422 -0.12922,-0.162353 -0.279588,-0.325633 -0.447266,-0.490234 -0.167678,-0.164601 -0.353934,-0.329421 -0.552734,-0.494141 -0.397599,-0.329439 -0.850059,-0.657476 -1.328125,-0.974609 -0.03785,-0.02511 -0.07903,-0.04729 -0.117188,-0.07227 -0.0248,0.217999 -0.140859,0.456705 -0.705078,0.441407 -1.136,-0.03 -1.242156,2.735953 1.214844,4.626953 z" /><text
       xml:space="preserve"
       style="font-size:5.33333px;line-height:1.25;font-family:sans-serif"
       x="47.159092"
       y="30.397728"
       id="text48677"><tspan
         sodipodi:role="line"
         id="tspan48675"
         x="47.159092"
         y="30.397728">12</tspan></text></g><g
     id="g70451"
     transform="matrix(2.8436153,0,0,2.8436153,-2.838065,-14.972197)"><path
       style="fill:#8c8c8c;fill-opacity:1;stroke:none;stroke-width:0.4;stroke-linecap:butt;stroke-linejoin:miter;stroke-miterlimit:4;stroke-dasharray:none;stroke-opacity:1"
       d="m 63.354987,27.523618 c 0,0 3.076188,2.470632 5.145646,-0.05655 -1.979089,-1.922551 -4.127825,-0.904729 -5.145646,0.05655 z"
       id="treze"
       sodipodi:nodetypes="ccc" /><text
       xml:space="preserve"
       style="font-size:5.33333px;line-height:1.25;font-family:sans-serif"
       x="54.545452"
       y="17.329546"
       id="text50441"><tspan
         sodipodi:role="line"
         id="tspan50439"
         x="54.545452"
         y="17.329546">13</tspan></text></g><g
     id="g70456"
     transform="matrix(2.8436153,0,0,2.8436153,-2.838065,-14.972197)"><path
       style="fill:#8c8c8c;fill-opacity:1;stroke:none;stroke-width:1px;stroke-linecap:butt;stroke-linejoin:miter;stroke-opacity:1"
       d="m 70.468523,28.0298 c 0,0 -3.405672,3.43662 -1.93986,4.875756 0.74501,0.731453 2.53597,0.403717 2.53597,0.403717"
       id="quatorze"
       sodipodi:nodetypes="csc" /><text
       xml:space="preserve"
       style="font-size:5.33333px;line-height:1.25;font-family:sans-serif"
       x="67.045456"
       y="13.636363"
       id="text51687"><tspan
         sodipodi:role="line"
         id="tspan51685"
         x="67.045456"
         y="13.636363">14</tspan></text></g><g
     id="g70461"
     transform="matrix(2.8436153,0,0,2.8436153,-2.838065,-14.972197)"><path
       style="fill:#8c8c8c;fill-opacity:1;stroke:none;stroke-width:0.4;stroke-linecap:butt;stroke-linejoin:miter;stroke-miterlimit:4;stroke-dasharray:none;stroke-opacity:1"
       d="m 77.616213,27.500955 c 0,0 -3.07618,2.470632 -5.14564,-0.05655 1.97909,-1.92255 4.12782,-0.904729 5.14564,0.05655 z"
       id="quinze"
       sodipodi:nodetypes="ccc" /><text
       xml:space="preserve"
       style="font-size:5.33333px;line-height:1.25;font-family:sans-serif"
       x="80.397728"
       y="17.897728"
       id="text52485"><tspan
         sodipodi:role="line"
         id="tspan52483"
         x="80.397728"
         y="17.897728">15</tspan></text></g><g
     id="g70466"
     transform="matrix(2.8436153,0,0,2.8436153,-2.838065,-14.972197)"><path
       id="dezeceis"
       style="fill:#8c8c8c;fill-opacity:1;stroke:none;stroke-opacity:1"
       d="m 80.202153,34.38294 c 0,0 -0.18179,0.02238 -0.44726,0.01563 -0.13274,-0.0034 -0.28709,-0.01395 -0.44922,-0.03711 -0.16213,-0.02316 -0.33312,-0.06024 -0.5,-0.115234 -0.16688,-0.05499 -0.32958,-0.127673 -0.47656,-0.226562 -0.0735,-0.04944 -0.14314,-0.105289 -0.20704,-0.167969 -0.0639,-0.06268 -0.1226,-0.133515 -0.17382,-0.210938 -0.0512,-0.07742 -0.0954,-0.162187 -0.13086,-0.255859 -0.0355,-0.09367 -0.0615,-0.195211 -0.0781,-0.306641 -0.0166,-0.111429 -0.0229,-0.232587 -0.0176,-0.363281 0.005,-0.130694 0.0224,-0.272362 0.0527,-0.423828 0.0303,-0.151467 0.0885,-0.304916 0.17187,-0.462891 0.0834,-0.157975 0.19109,-0.320069 0.32031,-0.482422 0.12922,-0.162353 0.27959,-0.325633 0.44727,-0.490234 0.16768,-0.164601 0.35393,-0.329421 0.55273,-0.494141 0.3976,-0.329439 0.85006,-0.657476 1.32813,-0.974609 0.0379,-0.02511 0.079,-0.04729 0.11719,-0.07227 0.0248,0.217999 0.14085,0.456705 0.70507,0.441407 1.136,-0.03 1.24216,2.735953 -1.21484,4.626953 z" /><text
       xml:space="preserve"
       style="font-size:5.33333px;line-height:1.25;font-family:sans-serif"
       x="84.179428"
       y="31.82612"
       id="text53503"><tspan
         sodipodi:role="line"
         id="tspan53501"
         x="84.179428"
         y="31.82612">16</tspan></text></g><g
     id="g70471"
     transform="matrix(2.8436153,0,0,2.8436153,-2.838065,-14.972197)"><path
       id="dezesete"
       style="fill:#8c8c8c;fill-opacity:1;stroke:none;stroke-opacity:1"
       d="m 83.731453,49.22083 -9.94572,9.066585 -3.52108,-14.968928 7.69141,-2.984375 c -0.16563,1.660149 -0.22398,4.281726 0.95508,5.978515 0,0 0.71552,1.594293 4.82031,2.908203 z"
       sodipodi:nodetypes="cccccc" /><text
       xml:space="preserve"
       style="font-size:5.33333px;line-height:1.25;font-family:sans-serif"
       x="82.954544"
       y="44.318184"
       id="text55343"><tspan
         sodipodi:role="line"
         id="tspan55341"
         x="82.954544"
         y="44.318184">17</tspan></text></g><g
     id="g70476"
     transform="matrix(2.8436153,0,0,2.8436153,-2.838065,-14.972197)"><path
       id="dezoito"
       style="fill:#8c8c8c;fill-opacity:1;stroke:none;stroke-opacity:1"
       d="m 98.186533,75.873174 -9.96875,5.869142 -0.35938,-31.568361 c 0.23989,0.04012 0.42695,0.08935 0.67969,0.126954 0,0 8.37467,0.08269 9.51367,11.429687 z" /><text
       xml:space="preserve"
       style="font-size:5.33333px;line-height:1.25;font-family:sans-serif"
       x="99.715912"
       y="56.81818"
       id="text56091"><tspan
         sodipodi:role="line"
         id="tspan56089"
         x="99.715912"
         y="56.81818">18</tspan></text></g><g
     id="g70481"
     transform="matrix(2.8436153,0,0,2.8436153,-2.838065,-14.972197)"><path
       id="dezenove"
       style="fill:#8c8c8c;fill-opacity:1;stroke:none;stroke-opacity:1"
       d="m 90.405283,89.937626 c -0.15852,-2.22137 -0.61946,-5.75533 -2.1875,-8.19531 l 9.96875,-5.869142 0.0234,2.492188 c 0,0 0.25294,3.986684 1.28515,8.248044 z" /><text
       xml:space="preserve"
       style="font-size:5.33333px;line-height:1.25;font-family:sans-serif"
       x="103.40909"
       y="81.25"
       id="text57173"><tspan
         sodipodi:role="line"
         id="tspan57171"
         x="103.40909"
         y="81.25">19</tspan></text></g><g
     id="g70486"
     transform="matrix(2.8436153,0,0,2.8436153,-2.838065,-14.972197)"><path
       id="vinte"
       style="fill:#8c8c8c;fill-opacity:1;stroke:none;stroke-opacity:1"
       d="m 90.405283,89.937626 9.08984,-3.32422 c 0.590397,2.4374 1.431257,4.96482 2.636717,6.88672 0,0 0.84047,1.53639 1.47461,4.82617 l -10.535157,4.722664 c -1.40524,-3.448904 -2.74206,-7.689704 -2.55469,-11.060554 0,0 -0.0291,-0.8991 -0.11132,-2.05078 z" /><text
       xml:space="preserve"
       style="font-size:5.33333px;line-height:1.25;font-family:sans-serif"
       x="105.96591"
       y="92.897728"
       id="text58695"><tspan
         sodipodi:role="line"
         id="tspan58693"
         x="105.96591"
         y="92.897728">20</tspan></text></g><g
     id="g70491"
     transform="matrix(2.8436153,0,0,2.8436153,-2.838065,-14.972197)"><path
       id="vinteum"
       style="fill:#8c8c8c;fill-opacity:1;stroke:none;stroke-opacity:1"
       d="m 93.071293,103.04896 10.535157,-4.722664 c 0.32095,1.66504 0.59336,3.747944 0.66796,6.371104 0,0 0.28735,3.24467 0.70899,5.90039 l -7.384757,1.39453 c -0.44844,-0.85841 -0.95235,-1.75025 -1.55079,-2.66211 0,0 -1.52449,-2.71744 -2.97656,-6.28125 z" /><text
       xml:space="preserve"
       style="font-size:5.33333px;line-height:1.25;font-family:sans-serif"
       x="107.95455"
       y="105.11364"
       id="text60591"><tspan
         sodipodi:role="line"
         id="tspan60589"
         x="107.95455"
         y="105.11364">21</tspan></text></g><g
     id="g70496"
     transform="matrix(2.8436153,0,0,2.8436153,-2.838065,-14.972197)"><path
       id="vintedois"
       style="fill:#8c8c8c;fill-opacity:1;stroke:none;stroke-opacity:1"
       d="m 97.598643,111.99232 7.384757,-1.39453 c 0.17875,1.12587 0.37343,2.16072 0.59375,2.77343 0.24879,0.66695 0.86423,1.59111 1.54883,2.54102 l -7.400387,6.05468 c 0.049,-0.55334 0.24414,-2.77851 0.24414,-3.89062 0,-0.24554 -0.68913,-2.86433 -2.37109,-6.08398 z" /><text
       xml:space="preserve"
       style="font-size:5.33333px;line-height:1.25;font-family:sans-serif"
       x="109.94319"
       y="114.48863"
       id="text61365"><tspan
         sodipodi:role="line"
         id="tspan61363"
         x="109.94319"
         y="114.48863">22</tspan></text></g><g
     id="g70501"
     transform="matrix(2.8436153,0,0,2.8436153,-2.838065,-14.972197)"><path
       id="vintetres"
       style="fill:#8c8c8c;fill-opacity:1;stroke:none;stroke-opacity:1"
       d="m 109.54825,119.09076 c 2.39729,3.19613 5.52877,8.37746 3.56873,9.02296 0,0 -1.689,0.164 -3.909,-4.257" /><text
       xml:space="preserve"
       style="font-size:5.33333px;line-height:1.25;font-family:sans-serif"
       x="115.90909"
       y="128.97728"
       id="text62731"><tspan
         sodipodi:role="line"
         id="tspan62729"
         x="115.90909"
         y="128.97728">23</tspan></text></g><g
     id="g70506"
     transform="matrix(2.8436153,0,0,2.8436153,-2.838065,-14.972197)"><path
       id="vintequatro"
       style="fill:#8c8c8c;fill-opacity:1;stroke:none;stroke-opacity:1"
       d="m 109.20798,123.85672 c 0,0 0,0 0,0 0,0 0.046,1.693 1.827,6.625 0.35,0.91401 1.839,5.59 -0.573,3.90901 0,0 -1.117,-0.767 -2.569,-5.577" /><text
       xml:space="preserve"
       style="font-size:5.33333px;line-height:1.25;font-family:sans-serif"
       x="114.48864"
       y="136.93182"
       id="text63611"><tspan
         sodipodi:role="line"
         id="tspan63609"
         x="114.48864"
         y="136.93182">24</tspan></text></g><g
     id="g70511"
     transform="matrix(2.8436153,0,0,2.8436153,-2.838065,-14.972197)"><path
       id="vintecinco"
       style="fill:#8c8c8c;fill-opacity:1;stroke:none;stroke-opacity:1"
       d="m 107.89298,128.81372 c 0,0 0,0 0,0 0,0 0.779,8.099 -0.088,8.506 -1.133,0.555 -1.751,-1.047 -2.262,-8.135" /><text
       xml:space="preserve"
       style="font-size:5.33333px;line-height:1.25;font-family:sans-serif"
       x="108.23863"
       y="142.32954"
       id="text64905"><tspan
         sodipodi:role="line"
         id="tspan64903"
         x="108.23863"
         y="142.32954">25</tspan></text></g><g
     id="g70516"
     transform="matrix(2.8436153,0,0,2.8436153,-2.838065,-14.972197)"><path
       id="vinteseis"
       style="fill:#8c8c8c;fill-opacity:1;stroke:none;stroke-opacity:1"
       d="m 105.24458,129.15222 c -0.1601,0.54046 -0.34861,2.16624 -0.4686,6.4805 -0.012,0.451 -0.673,2.69801 -1.596,0.78 -0.779,-1.608 -0.429,-5.864 -0.429,-7.295" /><text
       xml:space="preserve"
       style="font-size:5.33333px;line-height:1.25;font-family:sans-serif"
       x="100.28409"
       y="142.61363"
       id="text66001"><tspan
         sodipodi:role="line"
         id="tspan65999"
         x="100.28409"
         y="142.61363">26</tspan></text></g><g
     id="g70521"
     transform="matrix(2.8436153,0,0,2.8436153,-2.838065,-14.972197)"><path
       id="vintesete"
       style="fill:#8c8c8c;fill-opacity:1;stroke:none;stroke-opacity:1"
       d="m 102.75098,129.11772 c 0,0 0,0 0,0 0,0 -0.999,5.522 -1.933,5.522 0,0 -1.098997,1.291 -0.648,-5.57099 0.0104,-0.15915 0.0113,-0.34206 0.005,-0.54073" /><text
       xml:space="preserve"
       style="font-size:5.33333px;line-height:1.25;font-family:sans-serif"
       x="92.897728"
       y="140.34091"
       id="text68027"><tspan
         sodipodi:role="line"
         id="tspan68025"
         x="92.897728"
         y="140.34091">27</tspan></text></g></svg>
